<svg xmlns="http://www.w3.org/2000/svg" xmlns:xlink="http://www.w3.org/1999/xlink" viewBox="0 0 346.72 293.21"><defs><style>.cls-1{isolation:isolate;}.cls-2{fill:#757575;}.cls-3{fill:url(#linear-gradient);}.cls-4{fill:#fff;}.cls-5{fill:url(#linear-gradient-2);}.cls-40,.cls-6{fill:#ffdc8c;}.cls-7{fill:url(#linear-gradient-3);}.cls-8{fill:#eef0f7;}.cls-9{fill:#949494;}.cls-10{fill:#f5f7ff;}.cls-11{fill:#3b3b40;}.cls-12{fill:#eddad3;}.cls-13{fill:#eb4747;}.cls-14{fill:#eea886;}.cls-15{fill:#c2b2ac;}.cls-16{fill:#323657;}.cls-17{fill:#eea987;}.cls-18{fill:#a87860;}.cls-19{fill:#b5b5b5;}.cls-20{fill:#f3f3f3;}.cls-21{fill:#e2d2ca;}.cls-22{fill:#706865;}.cls-23{fill:#ccbdb7;}.cls-24{fill:#4667a8;}.cls-25{fill:#b59074;}.cls-26{fill:#ffc05c;}.cls-27{fill:#ead8cf;}.cls-28{fill:#da9b5b;}.cls-29{fill:#424773;}.cls-30{fill:#292c47;}.cls-31{fill:#3a3f47;}.cls-32{fill:#918783;}.cls-33{fill:#5e5854;}.cls-34{fill:#bfb2ac;}.cls-35{fill:#495054;}.cls-36{fill:#5f8be3;}.cls-37{fill:#cecfd6;}.cls-38{fill:#59524f;}.cls-39{fill:#314875;}.cls-40{mix-blend-mode:multiply;}.cls-41{fill:#5c5049;}.cls-42{fill:#fab46c;}.cls-43{fill:#1d3b54;}.cls-44{fill:#d4c3bd;}.cls-45{fill:#de9673;}.cls-46{fill:#e6d3cc;}.cls-47{fill:#254380;}.cls-48{fill:#bc8551;}.cls-49{fill:#a77860;}.cls-50{fill:#23344a;}.cls-51{fill:#807066;}.cls-52{fill:#5c544d;}.cls-53{fill:#3c4145;}.cls-54{fill:#33373b;}.cls-55{fill:#c98462;}.cls-56{fill:#de9d7d;}.cls-57{fill:#dfe1e8;}.cls-58{fill:#32658f;}.cls-59{fill:#6ea2e8;}.cls-60{fill:#252e3b;}.cls-61{fill:#212338;}.cls-62{fill:#d6d6d6;}.cls-63{fill:#e8e8e8;}.cls-64{fill:#c2c2c2;}.cls-65{fill:#e0e0e0;}.cls-66{fill:#3865c2;}</style><linearGradient id="linear-gradient" x1="64.83" y1="140.08" x2="292.95" y2="140.08" gradientTransform="translate(357.78 280.16) rotate(-180)" gradientUnits="userSpaceOnUse"><stop offset="0" stop-color="#ffebe3"/><stop offset="1" stop-color="#eddad4"/></linearGradient><linearGradient id="linear-gradient-2" x1="73.77" y1="51.72" x2="284.02" y2="51.72" gradientTransform="translate(357.78 103.44) rotate(-180)" gradientUnits="userSpaceOnUse"><stop offset="0" stop-color="#ff9f55"/><stop offset="1" stop-color="#ffd255"/></linearGradient><linearGradient id="linear-gradient-3" x1="119.47" y1="262.13" x2="238.32" y2="262.13" gradientTransform="matrix(1, 0, 0, 1, 0, 0)" xlink:href="#linear-gradient"/></defs><title>Asset 3</title><g class="cls-1"><g id="Layer_2" data-name="Layer 2"><g id="Слой_1" data-name="Слой 1"><rect class="cls-2" x="165.68" y="181.89" width="26.42" height="80.24" transform="translate(357.78 444.02) rotate(180)"/><rect class="cls-3" x="64.83" y="59.62" width="228.12" height="160.92" rx="11.6" transform="translate(357.78 280.16) rotate(180)"/><rect class="cls-4" x="73.77" y="42.49" width="210.25" height="152.83" transform="translate(357.78 237.82) rotate(180)"/><rect class="cls-5" x="73.77" y="42.49" width="210.25" height="18.46" transform="translate(357.78 103.44) rotate(180)"/><path class="cls-2" d="M171.53,206.86a7.36,7.36,0,1,0,7.36-7.35A7.36,7.36,0,0,0,171.53,206.86Z"/><rect class="cls-6" x="136.19" y="74.08" width="73.89" height="5.47" rx="2.66" transform="translate(346.27 153.63) rotate(180)"/><rect class="cls-6" x="136.19" y="83.95" width="73.89" height="5.47" rx="2.66" transform="translate(346.27 173.36) rotate(180)"/><rect class="cls-6" x="136.19" y="93.81" width="73.89" height="5.47" rx="2.66" transform="translate(346.27 193.09) rotate(180)"/><rect class="cls-7" x="119.47" y="259.1" width="118.85" height="6.06"/><path class="cls-8" d="M261.47,169.69a17,17,0,1,1-17-17A17,17,0,0,1,261.47,169.69Z"/><path class="cls-9" d="M244.43,176.49a.87.87,0,0,1-.86-.86V163.75a.86.86,0,0,1,1.72,0v11.88A.87.87,0,0,1,244.43,176.49Z"/><path class="cls-9" d="M250.37,170.55H238.49a.86.86,0,0,1,0-1.72h11.88a.86.86,0,0,1,0,1.72Z"/><rect class="cls-10" x="82.55" y="48.23" width="29.99" height="6.98" rx="2.51"/><path class="cls-8" d="M261.86,126.06a17.43,17.43,0,1,1-17.43-17.42A17.44,17.44,0,0,1,261.86,126.06Z"/><path class="cls-11" d="M243.2,117.74s-3.14-.11-4.14,2.46a7.6,7.6,0,0,0,0,5.49c.75,2.45.81,3.34.45,4.82-.32,1.31-.62,2-1,3.21s.25,1.09.3,1.18,12,2.67,12,2.67a14.07,14.07,0,0,0-1.17-4.27c-.58-.89-1.45-1.19-.79-3.81s1.07-3.85.7-5.75c-.43-2.21-.69-3.59-2.77-5A5.55,5.55,0,0,0,243.2,117.74Z"/><path class="cls-12" d="M252.34,141.59a15.63,15.63,0,0,1-2.42,1l-.31.11-.32.09a.86.86,0,0,0-.07-.12s-6.94-7.49-2.48-9.49a6.74,6.74,0,0,1,3.3,2.57,22.29,22.29,0,0,1,1.8,4.84S252.07,141.09,252.34,141.59Z"/><path class="cls-12" d="M245.69,131.38s3.5,2.53,4.67,8.55c0,0-3.29-6.44-4.36-7.59A1.08,1.08,0,0,1,245.69,131.38Z"/><path class="cls-13" d="M251.8,140.65a5,5,0,0,1-.25,1.32,15.26,15.26,0,0,1-1.63.63l-.31.11-.32.09a17.45,17.45,0,0,1-12-.83,13.76,13.76,0,0,1-1.05-4,6,6,0,0,1,1.28-4.16,3.61,3.61,0,0,1,1.26-1l.32-.07h0c.72-.19,1.62-.49,2.28-.71l.93-.32,3.58.57.09,0h0a4.25,4.25,0,0,1,.77.42h0a5.94,5.94,0,0,1,.83.66,21.14,21.14,0,0,1,2.07,2.71c.25.37.51.75.75,1.13a13,13,0,0,1,1,1.8h0a4.19,4.19,0,0,1,.37,1.54Z"/><path class="cls-14" d="M241.54,132.13s.11-4.25-.26-4.93,4.38,2.84,4.38,2.84,0,.17,0,.29v.06a4,4,0,0,0,0,.79v.14a5.12,5.12,0,0,0,.45,1.64C246.65,134.06,241.54,132.13,241.54,132.13Z"/><path class="cls-12" d="M250.22,136.11h0a4.3,4.3,0,0,1,.2,1.15l-.75-1.13s-1.35-1.93-1.81-2.43a7.75,7.75,0,0,0-1.09-.94S249.41,134,250.22,136.11Z"/><path class="cls-14" d="M245.91,132.31s2.41,3.7,1.6,4-5.23-.43-7.1-3.94A6.59,6.59,0,0,1,245.91,132.31Z"/><path class="cls-12" d="M240.22,138.77a28.73,28.73,0,0,0-4-1.16s.71-5.46,3.87-4.91S240.22,138.77,240.22,138.77Z"/><path class="cls-13" d="M245.73,131.64s-.19.7-4.17-.52l-.19.9a10.47,10.47,0,0,0-2,.67s7.19,6.77,8.27,4-1.67-4.36-1.67-4.36Z"/><path class="cls-13" d="M246,132.34l5.43,6.72a13,13,0,0,0-1-1.8c-.24-.38-.5-.76-.75-1.13a21.14,21.14,0,0,0-2.07-2.71,5.94,5.94,0,0,0-.83-.66h0a4.25,4.25,0,0,0-.77-.42Z"/><path class="cls-12" d="M251.66,141.92l-.11.05c-.27.12-.54.24-.82.34a16.06,16.06,0,0,0-4.73-10h0a3.56,3.56,0,0,1,.77.39,7,7,0,0,1,.83.68,16.27,16.27,0,0,1,1.88,2.4c.26.37.7,1,.94,1.39a13.41,13.41,0,0,1,1,1.86h0a4.52,4.52,0,0,1,.41,1.54A4.77,4.77,0,0,1,251.66,141.92Z"/><path class="cls-12" d="M238.67,139.52c-.14.24-.8,1.27-1.51,2.38l-.39-.18-.08,0a16.82,16.82,0,0,1-2.78-1.73c1.05-2.13,2-4,2-4s1.27-3.65,3.9-2.51S239,139,238.67,139.52Z"/><path class="cls-12" d="M246.57,143.36a18.77,18.77,0,0,1-2.14.13,17.25,17.25,0,0,1-7.12-1.52l-.54-.25a14.84,14.84,0,0,1-.56-4.11c.11-1.62.19-2.7.85-3.54s1.9-1.45,4.32-2.13l.18-.88a14.61,14.61,0,0,1,5.24,9.43h0A9.49,9.49,0,0,1,246.57,143.36Z"/><path class="cls-15" d="M239.88,137.57a30.17,30.17,0,0,1-1.31,4.91q-.65-.22-1.26-.51l-.08,0A15.14,15.14,0,0,0,239.88,137.57Z"/><path class="cls-16" d="M238.13,133.18l-.54.36c2.52,3.07,3.63,6.06,3.17,8.8a5.93,5.93,0,0,1-.16.73l.59.12c.06-.24.12-.49.16-.74C241.84,139.53,240.76,136.39,238.13,133.18Z"/><path class="cls-16" d="M237.59,133.54a1.12,1.12,0,0,1,.54-.36A.51.51,0,0,1,237.59,133.54Z"/><path class="cls-17" d="M245.65,119.38s3.47,2.27,2.34,7.74-5.22,2.46-5.66,2.15a13.15,13.15,0,0,1-1.87-5.23C240.41,122.64,239.67,117,245.65,119.38Z"/><path class="cls-11" d="M245.41,120.48c-.36-.1-1.58,2.25-2.23,2.83a6.12,6.12,0,0,0-2,3.65c-.11,1.6-1.46-3.5-1-5.39s1.09-4.67,5.32-2.47a5.43,5.43,0,0,1,3.13,6.14S247.24,121,245.41,120.48Z"/><path class="cls-17" d="M242.49,124.26c-.11-.65-1.54-1.2-1.52-.22s.81,2.09,1.25,2S242.59,124.85,242.49,124.26Z"/><path class="cls-18" d="M245.67,131.18h0a3.6,3.6,0,0,1-3.33-1.91,4.4,4.4,0,0,0,3.31,1.06v.06A4,4,0,0,0,245.67,131.18Z"/><rect class="cls-19" x="194.04" y="111.3" width="16.04" height="16.04" rx="3.36"/><path class="cls-20" d="M201.55,122.85l-4.06-3.53a.8.8,0,0,1-.07-1.13.79.79,0,0,1,1.12-.08l2.87,2.5,4.09-4.56a.8.8,0,0,1,1.19,1.07Z"/><rect class="cls-19" x="194.04" y="131.4" width="16.04" height="16.04" rx="3.36"/><rect class="cls-21" x="284.26" y="218.34" width="23.74" height="1.41" transform="translate(592.25 438.1) rotate(180)"/><rect class="cls-22" x="302.74" y="223.42" width="2.08" height="64.09"/><rect class="cls-23" x="271.47" y="217.94" width="16.5" height="2.01" transform="translate(559.44 437.9) rotate(180)"/><rect class="cls-24" x="276.6" y="200.77" width="6.25" height="18.98" transform="translate(559.44 420.53) rotate(180)"/><rect class="cls-25" x="225.08" y="219.78" width="91.43" height="3.64" transform="translate(541.6 443.2) rotate(180)"/><path class="cls-26" d="M334.06,197.72s1,14-1.74,15.7c-1.72,1.05-8.56,4.6-8.36,5.26s3.87,5.92,3.87,5.92,13.14-8.66,13.57-11.38-.65-20.54-2.46-21.36c-1.35-.62-2.06-.11-3.77,1.16C332.78,194.8,334.06,197.72,334.06,197.72Z"/><path class="cls-27" d="M310.1,201.72l-1.16-.42s1.45-3.4,2.08-3.31a14.51,14.51,0,0,1,1.63.33Z"/><path class="cls-28" d="M309.84,202.31c.15-.11,2.46-4.55,2.46-4.55l4.95.67-2.68,5.26Z"/><path class="cls-29" d="M317.89,278.76s.41,2.84.46,3.26,4.54-.25,4.54-.25l.37-3.38S318.45,278.36,317.89,278.76Z"/><path class="cls-30" d="M318.3,281.66a12.14,12.14,0,0,1-2.8,2.46c-1.38.74-3.55,1-4.36,1.81-.59.56-2.14,2.95,3.58,2.9s8.48.34,9.09-.58-.88-6.78-.88-6.78A12.06,12.06,0,0,1,318.3,281.66Z"/><path class="cls-29" d="M289.08,278.79s.41,2.83.46,3.26,4.55-.25,4.55-.25l.36-3.38S289.64,278.39,289.08,278.79Z"/><path class="cls-30" d="M289.49,281.69a12,12,0,0,1-2.8,2.45c-1.38.75-6.45,1.36-7.26,2.13-.59.56-1.57,2.8,6.48,2.59,5.72-.15,8.48.34,9.1-.58s-.89-6.78-.89-6.78S292.84,282,289.49,281.69Z"/><path class="cls-30" d="M332.39,229.75s-16.35,2.76-20,3.34-23.71,5.56-26.21,7.08c-2,1.21,1,30.23,1.75,41.3h7.89l.57-33.21c9.46.24,16.21-2.22,23.1-1.17s12.64,2.54,17-3.34C336.46,243.75,336.63,231,332.39,229.75Z"/><path class="cls-30" d="M316.28,281.5,324,281l.75-32.76a46.89,46.89,0,0,0,8.77-.56l6.2-14.42c-5.44,1.09-22.86,5.48-25.18,6.89C312.51,241.38,315.57,270.42,316.28,281.5Z"/><path class="cls-14" d="M324.86,168.47s-6-1.65-8.27,3-1.25,13.47,1.77,14.3,7.36-.13,8.61-3,2.26-7,2-9.68S326.46,169.11,324.86,168.47Z"/><path class="cls-14" d="M319.92,184.84s.07,3.54-.32,4.29,8.34.57,8.34.57a17.79,17.79,0,0,1-.59-7.87C328.12,178.25,319.92,184.84,319.92,184.84Z"/><path class="cls-31" d="M327.82,180.49s-.47.95-2.73.8-5.24-2.89-6.2-3.13-1-.79-1-.79l-.51.9-1,.15s.67-2.73-.79-3.69.66-8.72,8-6.85c0,0,5.63,1,5.7,4.17S328.91,178.83,327.82,180.49Z"/><path class="cls-21" d="M319.14,189s0-1.44.68-1.58,6.86-1,7.66-.68l.35,1.91S326.28,189.64,319.14,189Z"/><path class="cls-14" d="M317.34,176.73c.17-1.19,1.51-2.54,2.28-.7s-.52,4.52-1.38,4.37S317.11,178.33,317.34,176.73Z"/><path class="cls-16" d="M293.12,206.07h0C293.08,206.09,293.08,206.09,293.12,206.07Z"/><path class="cls-31" d="M326.61,169.32s7.31-.35,1.28,11.06Z"/><polygon class="cls-32" points="342.89 285.38 342.35 286.91 319.38 279.8 320.48 276.7 342.89 285.38"/><rect class="cls-32" x="318.6" y="253.74" width="2.61" height="24.97" transform="translate(639.8 532.45) rotate(180)"/><rect class="cls-33" x="312.2" y="252.41" width="15.4" height="1.47" transform="translate(639.8 506.3) rotate(180)"/><polygon class="cls-32" points="296.71 285.38 297.25 286.91 320.22 279.8 319.21 276.51 296.71 285.38"/><polygon class="cls-32" points="312.89 286.75 312.89 288.53 320.22 279.8 319.21 276.51 312.89 286.75"/><circle class="cls-34" cx="296.71" cy="287.51" r="2.15"/><path class="cls-34" d="M312.71,287.51a2.15,2.15,0,1,0,2.14-2.15A2.14,2.14,0,0,0,312.71,287.51Z"/><path class="cls-34" d="M340.75,287.51a2.15,2.15,0,1,0,2.14-2.15A2.14,2.14,0,0,0,340.75,287.51Z"/><rect class="cls-35" x="301.56" y="246.84" width="36.47" height="5.57" rx="2.75" transform="translate(639.6 499.25) rotate(180)"/><rect class="cls-22" x="236.78" y="223.42" width="2.08" height="64.09" transform="translate(475.65 510.93) rotate(180)"/><rect class="cls-36" x="252.74" y="171.85" width="53.96" height="38.06" rx="2.74" transform="translate(559.44 381.77) rotate(180)"/><rect class="cls-10" x="254.86" y="173.91" width="49.73" height="30.04" transform="translate(559.44 377.86) rotate(180)"/><rect class="cls-37" x="254.86" y="173.91" width="49.73" height="2.39" transform="translate(559.44 350.21) rotate(180)"/><rect class="cls-37" x="256.69" y="178.1" width="6" height="24" rx="1.7" transform="translate(519.39 380.2) rotate(180)"/><rect class="cls-37" x="292.24" y="178.1" width="10.94" height="2.22" rx="0.92" transform="translate(595.42 358.42) rotate(-180)"/><path class="cls-37" d="M294.14,181.81h7.15a1.89,1.89,0,0,1,1.89,1.89v17.11a1.9,1.9,0,0,1-1.9,1.9h-7.15a1.9,1.9,0,0,1-1.9-1.9V183.71A1.9,1.9,0,0,1,294.14,181.81Z" transform="translate(595.42 384.53) rotate(180)"/><path class="cls-38" d="M278,206.63a1.74,1.74,0,1,0,1.74-1.74A1.74,1.74,0,0,0,278,206.63Z"/><path class="cls-39" d="M268.55,219.83v-.68s.95-4.22,7.69-4.22,6.6,4.9,6.6,4.9Z"/><path class="cls-14" d="M282.92,215.56a6.49,6.49,0,0,1-2-.44c-.53-.32-3.74-2.48-4.5-2.13s-5.76,1.88-5.59,2.61.64.66,1,.53a26.84,26.84,0,0,1,4.32-.76s-3.58,1.3-3.59,2.26.75,1.18,1.09,1.54.74,1.25,1.66,1.32,5.42-1.49,6.35-1.56a24.19,24.19,0,0,0,2.75-.1A25.11,25.11,0,0,0,282.92,215.56Z"/><path class="cls-26" d="M309.56,191c4.67-.82,9.58-2,9.58-2l8.69-.35s8,1.75,11.11,3.17c.3.14.3,7.12,1.12,8.95l-2.6,5.49S336,217.18,335.64,222c-.14,2.22.4,21.47.4,21.47s-.78.39-6.71,1-20.74-.24-20.84-.94,2.87-26.08,3-27.39c.21-2-.58-11.34-.58-11.34-1.12,1.5-4,8.28-6.93,11.5-1.75,1.9-10.4,3.06-12,3.12-3.55.12-10,.82-10.21.48s-.56-5.75-.16-5.88,12.38-.81,15.46-2.45c1.12-.6,4.49-7.94,4.49-7.94S307,192.19,309.56,191Z"/><rect class="cls-35" x="321.4" y="208.1" width="25.15" height="34.84" rx="5.28" transform="translate(667.96 451.04) rotate(180)"/><path class="cls-35" d="M325.86,251a11.51,11.51,0,0,0,8.94-3.71c5-5.55,4.13-15.31,4.08-15.72a1.4,1.4,0,0,0-2.78.28c0,.11.81,9-3.38,13.57a8.72,8.72,0,0,1-6.86,2.78,1.4,1.4,0,0,0,0,2.8Z"/><rect class="cls-6" x="80.48" y="74.36" width="46.54" height="114.53" rx="5.26"/><polygon class="cls-6" points="132.92 187.52 148.99 173.64 157.91 180.58 177.04 162.25 188.14 173.64 209.92 157.41 209.92 187.29 132.92 187.52"/><polygon class="cls-40" points="209.92 187.29 195.75 179.46 186.96 183.97 173.13 174.53 166.45 180.31 132.92 157.41 132.92 187.52 209.92 187.29"/><polygon class="cls-41" points="58.96 282.35 52.96 242.49 54.12 242.31 60.11 282.17 58.96 282.35"/><polygon class="cls-41" points="51.64 282.35 45.65 242.49 46.8 242.31 52.79 282.17 51.64 282.35"/><polygon class="cls-41" points="15.6 282.35 14.44 282.17 20.43 242.31 21.59 242.49 15.6 282.35"/><path class="cls-21" d="M54.84,242.9l4.69-49.39a94.93,94.93,0,0,0-13.17-.81l-7.45,50.2Z"/><rect class="cls-42" x="38.91" y="240.39" width="15.93" height="2.51"/><path class="cls-21" d="M28.48,240.89,26,193.82s20.78-2.25,33.54-.31Z"/><path class="cls-43" d="M45.08,178.58s3.2-9.41-2.92-12.32-11.32,1.3-12.3,3.58-.72,6.43.11,9.32.72,7.3-1.1,8.77a10.2,10.2,0,0,0-4,8.9c.07,3.09,12.15-7.9,12.15-7.9Z"/><path class="cls-44" d="M36.91,279.83s-.19,6.65.75,7.05,4.55-1.91,6.13-4.2-2-7.61-2.57-10.54c-.24-1.23-3-3.44-4.4-2.81a6.59,6.59,0,0,0-2.35,2.26S37.93,274,36.91,279.83Z"/><path class="cls-45" d="M34.47,271.59a36,36,0,0,1,1.78,4c.61,1.76.72,6.63,1.1,7s3.4-1.18,3.8-3-.82-5.47-2-7.38a12,12,0,0,0-2.35-2.88A3,3,0,0,0,34.47,271.59Z"/><polygon class="cls-44" points="41.22 272.14 44.46 276.86 43.84 277.28 41.34 273.63 41.22 272.14"/><path class="cls-45" d="M29.57,219.92s1.58,2.67,0,4.62-12.22,7.29-12.14,10.37,2,7.92,2.73,9.15,3.28,6.31,4.62,9.29,9.11,17.21,10.62,20.42.59-12.84.59-12.84l-7.76-22.76L46.36,220.5S44.17,215.62,29.57,219.92Z"/><path class="cls-26" d="M36.47,189.78s-5,1.11-7,2.28S23,198.6,23,200.91s19.4,4.46,19.4,4.46l3.67,13.42s9.81-2.39,11-4.37-3.86-16.11-4.56-19.09-4.37-5-8.46-5.55A28.18,28.18,0,0,0,36.47,189.78Z"/><path class="cls-14" d="M48.37,220.36s-.35,2.3.58,3.27,5.24,6.64,3,12.22c-2.09,5.11-6.15,5-6.15,5H39.48s1.82,9.21,1.24,15.28-3.36,19.93-3.42,20.63-2.65,2.89-3.41,1.78c0,0-.07-8.35-.48-11.5s-2.15-15.76-2.67-17.62-3.62-7.53-3.62-8.12-3-9.72,3.57-12S39.62,220.41,48.37,220.36Z"/><path class="cls-46" d="M30.76,285s-4.33,5.05-3.84,5.95,4.73,1.38,7.4.59,3.24-7.16,4.64-9.81c.58-1.11-.2-4.59-1.66-5a6.58,6.58,0,0,0-3.25.27S35.25,281.08,30.76,285Z"/><path class="cls-14" d="M34.05,277.05a36.16,36.16,0,0,1-1.15,4.26c-.63,1.75-3.61,5.61-3.53,6.11s3.38,1.22,4.84.05,2.8-4.76,3.11-7a11.84,11.84,0,0,0,0-3.71A3,3,0,0,0,34.05,277.05Z"/><polygon class="cls-46" points="38.96 281.73 38.5 287.44 37.76 287.38 38.11 282.96 38.96 281.73"/><path class="cls-26" d="M51.91,235.85c-2,5.18-6.15,5-6.15,5H39.48s-2.62-4.15-9-4.87a19.44,19.44,0,0,0-4.83.12h-.07c-8.52,1.26-6.88,4.39-6.85,4.47a15.24,15.24,0,0,1-1.27-6c.82-6.74,10.56-8.16,12.14-10.1s0-4.62,0-4.62c14.6-4.3,16.79.58,16.79.58.64-.09,2.28-1,3-1,0,0,.73,1.59,1.24,3C51,223.77,54.05,230.22,51.91,235.85Z"/><polygon class="cls-47" points="45.85 198.72 48.01 218.79 19.59 218.79 17.43 198.72 45.85 198.72"/><rect class="cls-47" x="45.53" y="216.99" width="4.75" height="1.81"/><rect class="cls-48" y="218.79" width="78.29" height="2.73"/><path class="cls-14" d="M39.62,167.86s6.37,1.89,5.46,10.72S40,187,39.62,187s-5.33.39-6.89-10.33S39.62,167.86,39.62,167.86Z"/><path class="cls-14" d="M42.65,185.41a14.38,14.38,0,0,0,.23,4.74c.56,1.82-7.42,1.87-7.41.38,0-1.7.81-3.12.05-6S42.65,185.41,42.65,185.41Z"/><path class="cls-43" d="M38,171.8s3.46,5.51,7.11,6.78c0,0,2-9.23-6.23-11.17s-6.93,9.33-6.31,12.34A24.5,24.5,0,0,1,38,171.8Z"/><path class="cls-49" d="M36.46,185.78a4.31,4.31,0,0,0,5.74.27s-.26,1.68-2.58,1.9A3.24,3.24,0,0,1,36.46,185.78Z"/><path class="cls-50" d="M33.33,171s1.82-3.52,4.9-3.68a6,6,0,0,1,4.9,2.51,5.23,5.23,0,0,0-4.9-3C34.53,166.8,33.33,171,33.33,171Z"/><path class="cls-14" d="M43.69,189.73s-.11,6.12-5,6.3-3.84-5.87-3.84-5.87A16.81,16.81,0,0,1,43.69,189.73Z"/><rect class="cls-51" x="76.28" y="221.53" width="2.01" height="62.78"/><rect class="cls-51" y="221.53" width="2.01" height="62.78"/><path class="cls-52" d="M74.44,282.83s-.41,2.91-.46,3.35-4.62-.26-4.62-.26L69,282.46S73.87,282.42,74.44,282.83Z"/><path class="cls-53" d="M74,285.81a12.39,12.39,0,0,0,2.84,2.52c1.4.76,3.6,1.06,4.43,1.85.6.57,2.18,3-3.64,3s-8.61.35-9.24-.59.9-7,.9-7A12.27,12.27,0,0,0,74,285.81Z"/><path class="cls-52" d="M107.18,282.83s-.42,2.91-.47,3.35-4.62-.26-4.62-.26l-.37-3.46S106.6,282.42,107.18,282.83Z"/><path class="cls-53" d="M106.76,285.81a12.39,12.39,0,0,0,2.84,2.52c1.4.76,6.56,1.39,7.38,2.18.6.57,1.59,2.87-6.59,2.65-5.81-.15-8.61.35-9.24-.59s.91-7,.91-7S103.35,286.14,106.76,285.81Z"/><path class="cls-54" d="M76.07,207.7s-2.43,7.22-2.11,13.44-1.26,13-1.91,19.54c-.71,7.24-3.66,24.4-3.76,28.28s.45,16.26.45,16.26l5.89.13s5-30,6.23-33.06,7.63-24.88,7.85-27.33S76.07,207.7,76.07,207.7Z"/><path class="cls-53" d="M100.82,209s3.24,17.06,3.66,20.87.72,18.43.93,20.81,1.42,31.15,2.56,34.69h-7.53s-5.78-20.91-5.78-30.81-4.46-21.52-7.34-28-9.48-6.69-11.25-18.8C76.07,207.7,98.42,205.14,100.82,209Z"/><path class="cls-14" d="M85.52,150.69s5.94-2.22,8.67,2.3,2.48,13.56-.52,14.67-7.48.53-9-2.3-2.91-6.91-2.85-9.64S84,151.47,85.52,150.69Z"/><path class="cls-14" d="M92.68,167.38a4.94,4.94,0,0,0,.16,2.32c.39.77-7.47.79-7.47.79a51.85,51.85,0,0,0-1.85-7.69C82.31,159.28,92.68,167.38,92.68,167.38Z"/><path class="cls-31" d="M83.52,162.8s.55.9,2.76.55,4.92-3.3,5.84-3.62.93-.86.93-.86l.58.84,1,.06s-.9-2.63.45-3.71-1.4-8.53-8.5-6.05c0,0-5.46,1.51-5.26,4.61S82.3,161.26,83.52,162.8Z"/><path class="cls-21" d="M93.3,169.61s0-1.46-.69-1.6-7.32-.78-8.14-.46v1.7S86,170.22,93.3,169.61Z"/><path class="cls-14" d="M92.91,157.74c-.13-.52-1.45-2-2-.42s.77,3.74,1.48,3.55S93.22,159.06,92.91,157.74Z"/><path class="cls-35" d="M93.3,169.61s3.65,1.31,7.88,3.11a8.89,8.89,0,0,1,5.4,7.19c.28,2.85,3.31,18,3.88,19.27S117.77,221,118,221.47s-5.49,2.8-5.87,2.61-6.52-18.76-7.14-20.14c0,0-3.53-11.14-3.63-12.8,0,0-.1,4.73-.29,6.06s3.14,27.12,3.05,27.84S89,226.65,82.94,226a74.68,74.68,0,0,1-10.88-2.05s4.74-20.36,4.59-22.62c-.32-4.91-2-14.17-2-14.17l-4.91,9.26,6.29,16.17-1.44,4.92s-11.69-17.66-12.07-19.27.58-3.67,1.19-5,4.67-11.44,5.62-12.87,2.55-7.12,6.43-8.71a61.29,61.29,0,0,1,8.67-2.41Z"/><rect class="cls-16" x="98.43" y="207.75" width="28.42" height="19.83" transform="translate(275.81 400.52) rotate(165.62)"/><path class="cls-55" d="M120.4,225.67s.79,1.27,1.07,1.63-.7.59-1.13.22S120.4,225.67,120.4,225.67Z"/><path class="cls-56" d="M114.67,230a3.1,3.1,0,0,1-.57-.8s-.14-.58-.26-1c0-.13-.08-.24-.11-.31a5.65,5.65,0,0,1-.63-1.67c-.12-.79-.46-4.31-.46-4.31l2.13-.54,1.71-.36s3.71,3.69,3.9,4.41a1.6,1.6,0,0,1,.05.21,7,7,0,0,1-.06,1.47c0,.12,0,1.34-.29,1.57A1.18,1.18,0,0,1,119,229a2.89,2.89,0,0,1-1.47.56,1.77,1.77,0,0,1-1.55.28S115.14,230.31,114.67,230Z"/><path class="cls-35" d="M106.34,207.73s4.89,14.8,5.79,16.35a16.09,16.09,0,0,0,5.87-2.61l-5.36-16Z"/><rect class="cls-57" x="136.19" y="111.3" width="48.22" height="36.89" rx="5.33"/><path class="cls-14" d="M151,150.15s1.1-.68,1.82-.41,3,1,3.33.77.2-.62-.18-.76-2.19-.83-2.07-1c1-1.81,5.27-2.92,6.33-3.32.34-.13.46-.59.1-.73a22,22,0,0,0-5.14.56,15.81,15.81,0,0,0-5.33,2.73Z"/><path class="cls-58" d="M183.32,268.68s3.29,4.42,2.84,5.13-3.91.8-6,0-2.16-6-3.11-8.23c-.4-.93.45-3.68,1.65-3.88a5.12,5.12,0,0,1,2.51.38S180,265.22,183.32,268.68Z"/><path class="cls-14" d="M181.22,262.05a33.45,33.45,0,0,1,.73,3.58c.21,1.5,2.56,4.77,2.46,5.17s-2.81.76-3.91-.27-1.82-4-2.06-5.84a14.82,14.82,0,0,0-.51-2.5S180.17,260.94,181.22,262.05Z"/><path class="cls-58" d="M154.69,268.75s3.18,4.35,2.72,5.06-3.91.8-6,0-2.16-6-3.11-8.23c-.4-.93.46-3.68,1.65-3.88a5.4,5.4,0,0,1,2.61.43S151.32,265.3,154.69,268.75Z"/><path class="cls-14" d="M152.55,262.13a29.62,29.62,0,0,0,.65,3.5c.4,1.46,2.56,4.77,2.46,5.17s-2.81.76-3.91-.27-2-4-2.06-5.84a9.64,9.64,0,0,1,.25-3A2.44,2.44,0,0,1,152.55,262.13Z"/><path class="cls-14" d="M168.82,190s2.4,13.21,3.05,16.51,2.46,19.32,2.65,22,2.95,13,2.82,14,4.08,20.5,4.08,20.5a2.53,2.53,0,0,1-3,.1c-.77-.54-7.15-16.74-8.38-21.45s-4.59-15.65-5.23-17.16c-6-14-6-19.76-6.79-20.67s-.84.56-1.3,2.57-1.42,19.38-2,21.58-.13,9.66-.45,13.42-1.75,20.77-1.75,20.77a1.55,1.55,0,0,1-2.65,0c-.33-.36-2.67-18.94-2.73-23.42s-.13-10.64-.26-12.57c-1.2-18.53-4.15-21.18.5-34.3C156.11,167.32,168.82,190,168.82,190Z"/><path class="cls-16" d="M149.44,186.37s-6.5,10.71-4.9,28.92c0,0,18.22,2,30,1.09,0,0-4.22-22.59-5.75-26.42S149.44,186.37,149.44,186.37Z"/><path class="cls-14" d="M198.26,153.75s.09.58-1.72,1.86-.75-3.42-.75-3.42Z"/><path class="cls-14" d="M199.19,148.19s.59-1.81.82-2.23-.66-1.23-1.1-.15-.71,1.78-.71,1.78Z"/><path class="cls-16" d="M198.59,149.9l1.86-7.76a.88.88,0,0,0-.75-1.08l-3.73-.44a.86.86,0,0,0-1,.73l-1.27,7.92a.88.88,0,0,0,.79,1l3.13.29A.88.88,0,0,0,198.59,149.9Z"/><path class="cls-14" d="M199.55,149.32s.26-.68-.9-1.7c-1.54-1.35-3.67-2.88-4.14-2.77-.67.15-.5.68.52,1.37l1.36.91a9.9,9.9,0,0,0-2.71-.71c-.56.13-.76.73-.43.93a9.52,9.52,0,0,0,1.16.5s-.94-.23-1.14.12-.29.65.55,1.06a.67.67,0,0,0,0,1.17,2.12,2.12,0,0,1,.86,2.09,6.83,6.83,0,0,0,.69,2.43l2.9-1a12.05,12.05,0,0,1,.5-2.71C199.08,150.43,199.55,149.32,199.55,149.32Z"/><path class="cls-59" d="M151.27,146.41l.07,0A.06.06,0,0,0,151.27,146.41Z"/><path class="cls-16" d="M147.64,161.17A81.88,81.88,0,0,1,151,170c.79,2.68,1.73,5.89,1.3,9.17-.38,2.85-3.32,7.78-3.89,9.16L168.82,190c-.32-1.08-1.28-15.44.51-17.77,2.14-2.78,1.79-5.24,1.66-7.44,0,0,6.66,1.08,7.78,1.16,3.28.22,8.39,1.5,9.54.5l10.22-12L194.47,152l-5.71,6.58c-2.92,2.78-1.19,2.41-7.73.74-2-.5-10.44-4.36-11.79-4.86a53.93,53.93,0,0,1-6-2c-.37-.15-6.29-.27-6.29-.27a32.91,32.91,0,0,1-6.68.62c-.35,0-.89,0-1.53.06-.86.05-1.89.13-2.92.22h0c2.65-1.17,5.82-2.93,5.55-3.09a11,11,0,0,1-.13-3.52c-1.19.35-19,4.29-19.32,8S147.64,161.17,147.64,161.17Z"/><path class="cls-14" d="M154.6,152.5s6.46,7.59,8.88,9.34c0,0,3.29-2.11,1.58-8.74A14.06,14.06,0,0,0,154.6,152.5Z"/><polygon class="cls-58" points="176.95 265.19 176.95 269.83 177.55 269.83 177.55 266.25 176.95 265.19"/><polygon class="cls-58" points="148.2 265.19 148.2 269.83 148.8 269.83 148.8 266.25 148.2 265.19"/><path class="cls-60" d="M164.74,140.17s-.54,8.51,1.1,10.58c0,0-4.18-.75-5.19-2.14S164.74,140.17,164.74,140.17Z"/><path class="cls-14" d="M158.76,130.85s5.07-.32,6.22,5.64-.8,11.32-1.61,12.19-5.91.43-7.22-2.64-3.14-5.28-3-8S152.52,131,158.76,130.85Z"/><path class="cls-14" d="M155.91,144.69c.71,1.9,1.12,7.75,1,9.4-.1,1.47,6.92,1.85,6.07-.26a11.17,11.17,0,0,1-.59-3.23c0-.56,0-1.1,0-1.55,0-.75,0-1.26,0-1.26S155.21,142.79,155.91,144.69Z"/><path class="cls-60" d="M165.28,138.75s1.08-7.53-5.7-8.62-9,3.6-9.5,6.36.51,10.46.51,10.46,4.63,3.76,7.35,4.68c0,0-2.55-8.13-1.93-14,0,0,5.5.66,9.1-.37C165.11,137.21,165.26,138.43,165.28,138.75Z"/><path class="cls-49" d="M157.36,147.61s1.28,2.11,5,3c0-.56,0-1.1,0-1.55A7.34,7.34,0,0,1,157.36,147.61Z"/><path class="cls-61" d="M141.51,154.65s5.05-.27,7.26-1.84c-.86.05-1.89.13-2.92.22h0l-2.06.77Z"/><path class="cls-60" d="M160.82,153.49a2.27,2.27,0,0,0,1-.2,1.57,1.57,0,0,0,1-1l-.21-.26a1.71,1.71,0,0,1-.87,1c-.68.3-2.08.31-4.79-1.36l-.14.32A8.36,8.36,0,0,0,160.82,153.49Z"/><path class="cls-8" d="M266.52,78.64A22.05,22.05,0,0,1,256.68,97a22.68,22.68,0,0,1-3.42,1.88q-.6.25-1.23.48h0l-.3.1a22.12,22.12,0,0,1-15.46-.32c-.32-.13-.64-.26-1-.41l-.06,0L235,98.6c-.46-.21-.91-.45-1.36-.7A21.66,21.66,0,0,1,230.73,96l-.29-.22a22.09,22.09,0,1,1,36.08-17.1Z"/><path class="cls-60" d="M249.07,77s-.73,7.22.6,9c0,0-3.53-.77-4.35-2S249.07,77,249.07,77Z"/><path class="cls-16" d="M256.68,97A22.37,22.37,0,0,1,252,99.39c-1.57-1.8-2.72-3.29-2.72-3.29s-5.11-6-1-8.66a5.47,5.47,0,0,1,3.18,1.64,20.87,20.87,0,0,1,3,4.58C254.64,94,255.59,95.43,256.68,97Z"/><path class="cls-16" d="M251.73,99.49a22.1,22.1,0,0,1-18.12-1.59l-.85-1.44s-.29-6.9,1.47-8.27c1.53-1.19,5.7-1.61,6.45-1.87a12.75,12.75,0,0,1,4.46-.15,24.4,24.4,0,0,0,3.16,1.27c.81.16,4,4.27,4.53,5.77S252.84,96.9,251.73,99.49Z"/><path class="cls-14" d="M235.27,97.65a9.5,9.5,0,0,0-.3.95c-.46-.21-.91-.45-1.36-.7A21.66,21.66,0,0,1,230.73,96c.25-1.39,0-3.12,1.58-6.11A4.08,4.08,0,0,1,237,87.44C239.45,88.5,235.66,96.82,235.27,97.65Z"/><path class="cls-14" d="M246.26,83.46a55.48,55.48,0,0,0-.37,5.71s-2.44,2.44-5.21-2.85a7.26,7.26,0,0,0,.29-5.16C240.09,78.19,246.26,83.46,246.26,83.46Z"/><polygon class="cls-14" points="245.89 89.17 245.89 91.4 243.27 89.08 245.89 89.17"/><path class="cls-61" d="M253.26,98.9q-.6.25-1.23.48l-.17-.2c.84-3,1.18-4.89,1.18-4.89A15.57,15.57,0,0,1,253.26,98.9Z"/><path class="cls-61" d="M236.58,94.39s-.05,2.47-.31,4.78c-.34-.13-.68-.28-1-.43C235.74,97.13,236.52,94.59,236.58,94.39Z"/><path class="cls-16" d="M235.65,97.76c-.06.14-.18.5-.33,1l-.06,0q-.84-.39-1.65-.84a22.14,22.14,0,0,1-3.17-2.16,14.47,14.47,0,0,1,1.87-5.89A4.15,4.15,0,0,1,237,87.4C239.59,88.73,236,96.93,235.65,97.76Z"/><path class="cls-14" d="M239.72,86.52s1.77,5.65,6.54,6.15c0,0,.78-1.73.44-5.8A8.63,8.63,0,0,0,239.72,86.52Z"/><path class="cls-14" d="M244.28,68.82s4.32-.11,5.11,5-1,9.6-1.76,10.32-5,.18-6-2.48-2.51-4.59-2.28-6.87S239,68.74,244.28,68.82Z"/><path class="cls-60" d="M249.58,75.76s1.15-6.38-4.58-7.52-7.74,2.78-8.29,5.11.1,8.91.1,8.91,3.83,3.35,6.11,4.22c0,0-1.91-7-1.19-12,0,0,4.65.73,7.75,0C249.48,74.44,249.57,75.48,249.58,75.76Z"/><path class="cls-49" d="M246.16,84.42a7.31,7.31,0,0,1-3.54-1.33,8.46,8.46,0,0,0,3.44,2.46A10.44,10.44,0,0,0,246.16,84.42Z"/><path class="cls-8" d="M278.23,186.06a6.68,6.68,0,0,1-3,5.55,7,7,0,0,1-1,.57l-.37.14h0l-.09,0a6.73,6.73,0,0,1-4.67-.1l-.29-.12h0l-.09,0-.41-.21a6.64,6.64,0,0,1-.87-.59l-.09-.07a6.67,6.67,0,1,1,10.9-5.16Z"/><path class="cls-60" d="M273,185.55s-.22,2.18.18,2.72c0,0-1.07-.23-1.31-.6S273,185.55,273,185.55Z"/><path class="cls-16" d="M275.26,191.61a6.66,6.66,0,0,1-1.41.71c-.47-.54-.82-1-.82-1s-1.54-1.81-.31-2.61a1.65,1.65,0,0,1,1,.49,5.89,5.89,0,0,1,.91,1.38C274.64,190.69,274.93,191.13,275.26,191.61Z"/><path class="cls-16" d="M273.76,192.36a6.72,6.72,0,0,1-5.47-.48l-.26-.44s-.09-2.08.44-2.5a6.49,6.49,0,0,1,1.95-.56,3.81,3.81,0,0,1,1.35,0,7.6,7.6,0,0,0,1,.39,5,5,0,0,1,1.37,1.74A2.81,2.81,0,0,1,273.76,192.36Z"/><path class="cls-14" d="M268.79,191.8a2.11,2.11,0,0,0-.09.29l-.41-.21a6.64,6.64,0,0,1-.87-.59,4.37,4.37,0,0,1,.47-1.85,1.24,1.24,0,0,1,1.41-.72C270.05,189,268.91,191.55,268.79,191.8Z"/><path class="cls-14" d="M272.11,187.51a16.92,16.92,0,0,0-.11,1.73s-.74.73-1.58-.86a2.16,2.16,0,0,0,.09-1.56C270.25,185.92,272.11,187.51,272.11,187.51Z"/><polygon class="cls-14" points="272 189.24 272 189.91 271.21 189.21 272 189.24"/><path class="cls-61" d="M274.22,192.18l-.37.14-.05-.06c.25-.9.36-1.48.36-1.48A4.72,4.72,0,0,1,274.22,192.18Z"/><path class="cls-61" d="M269.19,190.81s0,.75-.1,1.45l-.3-.13C268.93,191.64,269.16,190.87,269.19,190.81Z"/><path class="cls-16" d="M268.9,191.83s0,.15-.1.31h0c-.17-.08-.34-.16-.5-.25a6.29,6.29,0,0,1-1-.66,4.45,4.45,0,0,1,.56-1.78,1.27,1.27,0,0,1,1.42-.74C270.1,189.1,269,191.58,268.9,191.83Z"/><path class="cls-14" d="M270.13,188.44s.54,1.71,2,1.86a3.86,3.86,0,0,0,.13-1.76A2.62,2.62,0,0,0,270.13,188.44Z"/><path class="cls-14" d="M271.51,183.09a1.6,1.6,0,0,1,1.55,1.51,4.65,4.65,0,0,1-.54,3.12,1.57,1.57,0,0,1-1.83-.75c-.3-.8-.75-1.39-.69-2.08S269.91,183.06,271.51,183.09Z"/><path class="cls-60" d="M273.11,185.19s.35-1.93-1.38-2.28a2,2,0,0,0-2.5,1.55,13.09,13.09,0,0,0,0,2.69,8.86,8.86,0,0,0,1.84,1.27,10.94,10.94,0,0,1-.36-3.62,7.41,7.41,0,0,0,2.34,0S273.11,185.1,273.11,185.19Z"/><path class="cls-49" d="M272.08,187.8a2.19,2.19,0,0,1-1.07-.4,2.43,2.43,0,0,0,1,.74S272.08,187.87,272.08,187.8Z"/><polygon class="cls-62" points="308.64 154.3 329.63 142.56 322.42 142.08 308.64 154.3"/><polygon class="cls-63" points="308.64 154.3 315.1 143.91 320.52 143.76 308.64 154.3"/><polygon class="cls-64" points="324.81 145.26 325.23 147.9 308.64 154.3 324.81 145.26"/><path class="cls-65" d="M39.46,141.62c-.07-.82-.13-1.66-.19-2.47l.57,0c.06.81.13,1.64.2,2.46ZM336.63,139l-.33-.47a24.21,24.21,0,0,0,2.36-2l.4.42A24.66,24.66,0,0,1,336.63,139Zm-297.55-3c-.06-1-.11-2.08-.15-3.11l.57,0c0,1,.09,2.06.15,3.09Zm302.16-1.3-.43-.38a27.68,27.68,0,0,0,1.88-2.42l.47.32A27.08,27.08,0,0,1,341.24,134.75ZM38.83,129.84c0-1,0-2.08,0-3.11h.57c0,1,0,2.06,0,3.09Zm305.94-.27-.52-.26a18.17,18.17,0,0,0,1.15-2.82l.55.17A19.3,19.3,0,0,1,344.77,129.57ZM39.36,123.63h-.58c0-1,0-2.09.06-3.11h.58C39.39,121.56,39.37,122.6,39.36,123.63Zm307.25,0-.57-.07a15,15,0,0,0,.1-1.77c0-.42,0-.85-.05-1.27l.57,0q.06.66.06,1.32A16.22,16.22,0,0,1,346.61,123.58Zm-1.07-6.1a18,18,0,0,0-1.08-2.85l.52-.25a18.19,18.19,0,0,1,1.11,2.94Zm-306,0-.57,0c0-1,.1-2.08.17-3.1l.57,0C39.63,115.37,39.58,116.41,39.53,117.44ZM343,112a28.47,28.47,0,0,0-1.84-2.45l.44-.37a29.69,29.69,0,0,1,1.88,2.5Zm-303-.71-.57-.05c.09-1,.18-2.07.29-3.09l.57.06C40.12,109.2,40,110.23,39.93,111.26Zm299.09-4c-.08-.08-.16-.17-.25-.25a21.47,21.47,0,0,0-2-1.76l.35-.46a22.6,22.6,0,0,1,2.09,1.81l.26.25ZM40.57,105.11,40,105c.13-1,.27-2.06.42-3.07L41,102C40.84,103.05,40.7,104.08,40.57,105.11Zm293.62-1.56a27.84,27.84,0,0,0-2.73-1.38l.23-.53a29.07,29.07,0,0,1,2.79,1.41Zm-5.59-2.49c-.93-.32-1.89-.61-3-.89l.15-.56c1.07.29,2,.58,3,.9Zm-6-1.62c-.92-.2-1.91-.4-3-.62l.11-.56c1.13.21,2.13.42,3,.62ZM41.47,99l-.56-.09c.17-1,.35-2,.55-3.06l.56.11C41.83,96.94,41.64,98,41.47,99Zm275.09-.72-.92-.17-2.13-.38.1-.56,2.13.38.92.17Zm-6.11-1.13c-1.09-.22-2.09-.43-3-.64l.13-.56c.94.21,1.93.42,3,.64Zm-6.06-1.39c-1-.28-2-.58-3-.89l.18-.54c.94.3,1.94.6,3,.87Zm-5.92-1.94c-1-.38-1.94-.8-2.86-1.23l.25-.52c.9.43,1.85.84,2.82,1.22ZM42.64,92.91l-.56-.12c.22-1,.45-2,.69-3l.56.13C43.09,90.88,42.86,91.9,42.64,92.91Zm250.21-1.78c-.91-.52-1.8-1.08-2.65-1.65l.33-.48c.83.57,1.71,1.12,2.6,1.63Zm-5.15-3.51c-.8-.65-1.59-1.33-2.34-2.05l.39-.42c.75.71,1.52,1.39,2.31,2ZM44.08,86.89l-.55-.15c.27-1,.55-2,.83-3l.56.16C44.63,84.89,44.35,85.9,44.08,86.89Zm239.1-3.54c-.69-.76-1.37-1.56-2-2.38l.45-.36c.64.82,1.3,1.6,2,2.35ZM45.82,81l-.55-.17c.32-1,.65-2,1-3l.54.19C46.46,79,46.13,80,45.82,81Zm233.5-2.49c-.57-.83-1.14-1.71-1.68-2.61l.49-.3c.54.89,1.1,1.76,1.67,2.59ZM47.86,75.11l-.54-.2c.37-1,.75-1.94,1.14-2.89l.53.22C48.6,73.18,48.22,74.15,47.86,75.11Zm228.24-2c-.47-.89-1-1.82-1.39-2.77l.51-.25c.45.94.92,1.87,1.39,2.75ZM50.2,69.39l-.53-.23c.42-1,.86-1.9,1.3-2.83l.52.25C51.05,67.5,50.61,68.45,50.2,69.39Zm223.23-1.86c-.39-.93-.78-1.9-1.15-2.88l.54-.21c.37,1,.75,1.94,1.14,2.87ZM52.85,63.8l-.51-.26c.47-.92.95-1.84,1.45-2.75l.5.28C53.8,62,53.32,62.89,52.85,63.8Zm218.38-2.08c-.32-1-.64-1.95-1-3l.55-.16c.3,1,.62,2,.95,2.94ZM55.81,58.38l-.49-.29c.52-.9,1.06-1.79,1.6-2.67l.49.31C56.87,56.6,56.33,57.49,55.81,58.38Zm213.6-2.6c-.27-1-.53-2-.78-3l.56-.14q.38,1.53.78,3ZM59.08,53.13l-.48-.32c.57-.86,1.17-1.72,1.76-2.56l.47.33C60.24,51.41,59.65,52.27,59.08,53.13Zm208.8-3.36c-.27-1-.59-2-.94-2.92l.54-.2c.35,1,.67,2,.95,3ZM62.65,48.08l-.46-.35c.62-.82,1.27-1.65,1.91-2.45l.45.36C63.91,46.44,63.27,47.26,62.65,48.08ZM265.77,44c-.41-.92-.87-1.85-1.37-2.75l.51-.28c.5.92,1,1.86,1.39,2.8ZM66.51,43.25l-.43-.37c.66-.79,1.35-1.58,2-2.34l.43.38C67.86,41.68,67.18,42.47,66.51,43.25Zm4.14-4.59-.41-.4c.71-.75,1.44-1.49,2.18-2.22l.4.41C72.09,37.17,71.36,37.91,70.65,38.66Zm192.19-.07c-.54-.85-1.12-1.71-1.73-2.55l.47-.33c.61.84,1.2,1.71,1.75,2.58ZM75.05,34.31l-.39-.42c.75-.7,1.53-1.41,2.3-2.09l.38.43C76.57,32.91,75.8,33.61,75.05,34.31Zm184.18-.71c-.64-.78-1.32-1.56-2-2.32l.42-.39c.71.77,1.39,1.56,2,2.35ZM79.69,30.22l-.36-.44c.79-.66,1.6-1.32,2.41-2l.36.45C81.29,28.91,80.48,29.57,79.69,30.22Zm175.37-1.16c-.72-.71-1.48-1.42-2.25-2.11l.38-.43c.78.69,1.55,1.41,2.27,2.13ZM84.55,26.41,84.21,26c.82-.62,1.67-1.22,2.51-1.82l.33.47C86.21,25.19,85.37,25.8,84.55,26.41Zm165.91-1.47c-.79-.64-1.61-1.28-2.44-1.9l.35-.46c.83.62,1.66,1.27,2.45,1.92ZM89.6,22.87l-.31-.48q1.29-.86,2.61-1.68l.3.49C91.33,21.74,90.46,22.3,89.6,22.87Zm155.91-1.64c-.83-.57-1.7-1.15-2.57-1.71l.31-.48c.88.56,1.75,1.14,2.59,1.72ZM94.85,19.6l-.3-.5c.89-.52,1.8-1,2.7-1.54l.28.5C96.63,18.56,95.73,19.08,94.85,19.6ZM240.3,17.91c-.87-.52-1.78-1-2.69-1.53l.28-.51c.91.51,1.82,1,2.7,1.54Zm-140-1.31-.26-.51c.91-.48,1.84-.95,2.77-1.4l.25.51C102.09,15.65,101.16,16.13,100.25,16.6Zm134.63-1.67c-.91-.46-1.84-.91-2.78-1.36l.24-.52c.95.45,1.89.91,2.8,1.37ZM105.81,13.87l-.24-.52c.93-.43,1.89-.86,2.84-1.27l.22.53C107.69,13,106.74,13.44,105.81,13.87Zm123.47-1.58c-.93-.41-1.89-.81-2.85-1.2l.22-.54c1,.4,1.92.8,2.86,1.22Zm-117.79-.88-.22-.53c1-.39,1.93-.77,2.9-1.14l.2.54ZM223.55,10c-1-.36-1.94-.71-2.91-1l.19-.55c1,.35,2,.7,2.92,1.07ZM117.28,9.22l-.19-.55c1-.34,2-.68,2.94-1l.18.55C119.23,8.54,118.25,8.87,117.28,9.22ZM217.71,7.91c-1-.32-2-.63-3-.92l.16-.55c1,.29,2,.6,3,.92Zm-94.55-.63L123,6.73c1-.3,2-.59,3-.87l.16.55C125.14,6.69,124.14,7,123.16,7.28Zm88.61-1.15c-1-.27-2-.54-3-.79l.14-.55c1,.25,2,.51,3,.79ZM129.13,5.6,129,5l3-.74.13.56C131.13,5.09,130.12,5.34,129.13,5.6Zm76.64-1c-1-.23-2-.46-3-.67l.12-.56c1,.21,2,.44,3,.67Zm-70.62-.45L135,3.61c1-.22,2-.43,3-.62l.11.56C137.17,3.75,136.15,4,135.15,4.17Zm64.56-.82c-1-.19-2-.37-3.05-.54l.09-.56c1,.17,2.05.35,3.06.54ZM141.23,3l-.1-.57,3.06-.5.09.57C143.26,2.64,142.23,2.81,141.23,3Zm52.37-.66c-1-.15-2-.29-3.07-.42l.07-.57c1,.13,2.06.27,3.08.42ZM147.34,2l-.07-.57,3.08-.38.06.57Zm40.11-.49c-1-.12-2.06-.22-3.08-.31l0-.57c1,.09,2.07.19,3.09.3Zm-34-.22-.06-.57c1-.1,2.07-.19,3.09-.26l0,.57ZM181.28,1,178.19.8l0-.57c1,.05,2.08.12,3.1.19ZM159.65.86l0-.57c1-.06,2.06-.12,3.09-.16l0,.58C161.71.75,160.67.8,159.65.86ZM175.1.67c-1,0-2.07-.06-3.1-.08V0l3.1.07ZM165.82.61V0c1,0,2.07,0,3.1,0V.58C167.88.58,166.84.59,165.82.61Z"/><path class="cls-66" d="M34,208a2.37,2.37,0,0,1-1,3.15,2.62,2.62,0,0,1-1.85-4.79A2.36,2.36,0,0,1,34,208Z"/></g></g></g></svg>