<svg xmlns="http://www.w3.org/2000/svg" xmlns:xlink="http://www.w3.org/1999/xlink" viewBox="0 0 374.71 263.5"><defs><style>.cls-1{fill:#73c0ff;}.cls-2{fill:#4da8f2;}.cls-3{fill:#b5deff;}.cls-4{fill:#fff;}.cls-5{fill:url(#linear-gradient);}.cls-6{fill:#dfe1e8;}.cls-7{fill:#eef0f7;}.cls-8{fill:#3c4145;}.cls-9{fill:#eea886;}.cls-10{fill:#e55353;}.cls-11{fill:#a77860;}.cls-12{fill:#bd4444;}.cls-13{fill:#323657;}.cls-14{fill:#ab9f9a;}.cls-15{fill:#d4a888;}.cls-16{fill:#1d3b54;}.cls-17{fill:#cf8c6c;}.cls-18{fill:#eb4747;}.cls-19{fill:#db9c7c;}.cls-20{fill:#152c3d;}.cls-21{fill:#eddad3;}.cls-22{fill:#bfb2ac;}.cls-23{fill:#d9c7c1;}.cls-24{fill:#eea987;}.cls-25{fill:#e8734d;}.cls-26{fill:#c78d71;}.cls-27{fill:#5073ab;}.cls-28{fill:#f5f7ff;}.cls-29{fill:#78c2ff;}.cls-30{fill:#1a598c;}.cls-31{fill:#2273b5;}.cls-32{fill:#949494;}.cls-33{fill:#f3f3f3;}.cls-34{fill:#1d2033;}.cls-35{fill:#50558a;}.cls-36{fill:#292c47;}.cls-37{fill:#3a4066;}.cls-38{fill:#e2d2ca;}.cls-39{fill:#ccbdb7;}.cls-40{fill:#4667a8;}.cls-41{fill:#ffc05c;}.cls-42{fill:#ead8cf;}.cls-43{fill:#da9b5b;}.cls-44{fill:#424773;}.cls-45{fill:#3a3f47;}.cls-46{fill:#918783;}.cls-47{fill:#5e5854;}.cls-48{fill:#5f8be3;}.cls-49{fill:#cecfd6;}.cls-50{fill:#5c5552;}.cls-51{fill:#2e436e;}</style><linearGradient id="linear-gradient" x1="105.77" y1="28.92" x2="313.06" y2="28.92" gradientTransform="translate(418.83 57.84) rotate(-180)" gradientUnits="userSpaceOnUse"><stop offset="0" stop-color="#40d5e6"/><stop offset="1" stop-color="#57f"/></linearGradient></defs><title>Asset 1</title><g id="Layer_2" data-name="Layer 2"><g id="Слой_1" data-name="Слой 1"><path class="cls-1" d="M343,22.66a25,25,0,0,0-2.65-6.39l2.7-4.06-3.75-3.74-3.74-3.74-4.06,2.69a25,25,0,0,0-6.39-2.65l-1-4.77H313.57l-1,4.77a25,25,0,0,0-6.39,2.65l-4.06-2.69-3.74,3.74-3.75,3.74,2.7,4.06a25,25,0,0,0-2.65,6.39l-4.77,1V34.21l4.77,1a24.84,24.84,0,0,0,2.65,6.39l-2.7,4.06,3.75,3.75,3.74,3.74,4.06-2.7a25,25,0,0,0,6.39,2.65l1,4.78h10.59l1-4.78a25,25,0,0,0,6.39-2.65l4.06,2.7,3.74-3.74,3.75-3.75-2.7-4.06A24.84,24.84,0,0,0,343,35.17l4.77-1V23.62ZM318.86,47.47a18.55,18.55,0,1,1,18.56-18.55A18.56,18.56,0,0,1,318.86,47.47Z"/><path class="cls-1" d="M350.23,67.69A11.46,11.46,0,0,0,349,64.76l1.23-1.86-1.71-1.72-1.72-1.72L345,60.7A11.46,11.46,0,0,0,342,59.49l-.44-2.19h-4.85l-.45,2.19a11.61,11.61,0,0,0-2.93,1.21l-1.86-1.24-1.71,1.72-1.72,1.72,1.24,1.86a11.48,11.48,0,0,0-1.22,2.93l-2.19.44V73l2.19.44a11.48,11.48,0,0,0,1.22,2.93l-1.24,1.86,1.72,1.72,1.71,1.72,1.86-1.24a11.61,11.61,0,0,0,2.93,1.21l.45,2.19h4.85l.44-2.19A11.46,11.46,0,0,0,345,80.41l1.86,1.24,1.72-1.72,1.71-1.72L349,76.35a11.46,11.46,0,0,0,1.21-2.93l2.19-.44V68.13ZM339.16,79.06a8.51,8.51,0,1,1,8.51-8.5A8.51,8.51,0,0,1,339.16,79.06Z"/><rect class="cls-2" x="196.39" y="157.25" width="26.04" height="79.11" transform="translate(418.83 393.61) rotate(180)"/><rect class="cls-3" x="96.96" y="36.7" width="224.9" height="158.66" rx="11.44" transform="translate(418.82 232.06) rotate(180)"/><rect class="cls-4" x="105.77" y="19.82" width="207.29" height="150.68" transform="translate(418.83 190.32) rotate(180)"/><rect class="cls-5" x="105.77" y="19.82" width="207.29" height="18.2" transform="translate(418.83 57.84) rotate(180)"/><path class="cls-2" d="M202.16,181.88a7.26,7.26,0,1,0,7.25-7.26A7.26,7.26,0,0,0,202.16,181.88Z"/><rect class="cls-6" x="173.22" y="50.96" width="66.95" height="5.39" rx="2.52" transform="translate(413.38 107.32) rotate(180)"/><rect class="cls-6" x="173.22" y="60.69" width="66.95" height="5.39" rx="2.52" transform="translate(413.38 126.77) rotate(180)"/><rect class="cls-6" x="173.22" y="70.41" width="66.95" height="5.39" rx="2.52" transform="translate(413.38 146.22) rotate(180)"/><path class="cls-6" d="M204.82,159.9h-77.7a11.77,11.77,0,0,1-11.75-11.75V100.88a11.76,11.76,0,0,1,11.75-11.75h77.7a11.76,11.76,0,0,1,11.75,11.75v47.27A11.77,11.77,0,0,1,204.82,159.9Zm-77.7-69.3a10.29,10.29,0,0,0-10.28,10.28v47.27a10.29,10.29,0,0,0,10.28,10.27h77.7a10.29,10.29,0,0,0,10.28-10.27V100.88A10.3,10.3,0,0,0,204.82,90.6Z"/><rect class="cls-6" x="128.07" y="95.58" width="75.79" height="11.37" rx="5.19" transform="translate(331.93 202.52) rotate(180)"/><rect class="cls-3" x="150.83" y="233.38" width="117.17" height="5.97"/><path class="cls-7" d="M289.74,104.66a16.85,16.85,0,0,1-8.35,14.56,16.24,16.24,0,0,1-3.2,1.45l-.3.1a16.87,16.87,0,1,1,11.85-16.11Z"/><path class="cls-8" d="M268.85,102.88s-1.15-7.45,5-7.32,6.09,3.83,6,7.48-2.48,3.39.19,8.47-2.31,5.09-2.31,5.09l-3.86-5.31Z"/><path class="cls-9" d="M273.19,96.28s-4.18.66-4.34,6.6,1.13,7.2,4.78,6,4.82-7.46,4.9-8.42S278.83,95.56,273.19,96.28Z"/><path class="cls-10" d="M280.53,116.94a4,4,0,0,1-2.34,3.73l-.3.1a16.87,16.87,0,0,1-12.51-1c-.51-1,.23-2.45,1.72-4.66,1-1.52,2-3.07,3.76-3.83,2.54-.4,5.24-.43,7.13.65C279.5,112.78,280.51,114.33,280.53,116.94Z"/><path class="cls-10" d="M267.92,115l-1.92,3s.13-.48.35-1.81c0-.25.09-.53.13-.85l.06-.28h0c.83-1.9,3.39-3.31,3.48-3.35Z"/><path class="cls-9" d="M281.39,119.22a16.24,16.24,0,0,1-3.2,1.45l-.3.1c-.43-1.1-.8-2-.88-2.3,0-.07-.08-.21-.15-.39a12.68,12.68,0,0,1-1.13-4.18c0-.94.3-1.72,1.25-1.94a2.49,2.49,0,0,1,1,0,3,3,0,0,1,2,2s0,0,0,0a6.49,6.49,0,0,1,.38,1.35s0,.06,0,.18.17.69.32,1.27Z"/><path class="cls-9" d="M276,106.17a32.32,32.32,0,0,0-.74,4.93s-5.11,1.94-4.59.84a4,4,0,0,0,.31-1.69,8.39,8.39,0,0,0,0-1l0-.18S276.35,105.49,276,106.17Z"/><path class="cls-8" d="M271.49,100.54s2.14,3.49,4.1,4.87,1,2.47,1,2.47,5.09-10.72.25-11.46-7.81-.8-7.95,6.46C268.85,102.88,271.05,100.49,271.49,100.54Z"/><path class="cls-11" d="M273.82,108.78c-.78,1.16-2.86,1.47-2.86,1.47h0a8.39,8.39,0,0,0,0-1A5.89,5.89,0,0,0,273.82,108.78Z"/><path class="cls-12" d="M266.55,115.09h0a4.3,4.3,0,0,0-.2,1.15l.75-1.13s1.35-1.93,1.81-2.43a7.06,7.06,0,0,1,1.13-.94S267.36,113,266.55,115.09Z"/><path class="cls-10" d="M276.73,118A29.52,29.52,0,0,1,281,116.6s-.66-5.27-3.88-4.71S276.73,118,276.73,118Z"/><path class="cls-9" d="M270.86,111.28s-2.41,3.71-1.59,4,5.23-.43,7.1-4A6.6,6.6,0,0,0,270.86,111.28Z"/><rect class="cls-13" x="67.16" y="192.79" width="26.28" height="2.41" transform="translate(-1.47 0.61) rotate(-0.43)"/><rect class="cls-13" x="83.01" y="180.98" width="26.28" height="2.41" transform="translate(-106.19 220.85) rotate(-73)"/><rect class="cls-14" x="138.62" y="198.24" width="2.05" height="63.19"/><rect class="cls-15" x="61.68" y="194.65" width="90.14" height="3.59" transform="translate(213.5 392.88) rotate(180)"/><rect class="cls-14" x="73.21" y="198.24" width="2.05" height="63.19" transform="translate(148.48 459.66) rotate(180)"/><rect class="cls-14" x="32.01" y="219.94" width="2.47" height="31.12"/><path class="cls-16" d="M64.19,247.39a13.62,13.62,0,0,0,.47,3c.33,1.18,1,5.73,1.83,6.36S70,259,69.64,260.78s-.74,2.94-3.66,1.91-4.88-1.61-5.44-4.18a16.12,16.12,0,0,0-2.16-4.9l-2.11,5.26-1.12-.45s1.69-5.68,1.54-6.18.77-5,4.31-6.14S64.19,247.39,64.19,247.39Z"/><path class="cls-16" d="M83.72,249a12.83,12.83,0,0,0,1.55,2.59c.74,1,3,4.94,4.06,5.22s4.16.83,4.44,2.59.41,3-2.68,3.14-5.13.32-6.61-1.85A16.15,16.15,0,0,0,80.65,257v5.66h-1.2s-.56-5.89-.88-6.31-1.16-4.94,1.71-7.3S83.72,249,83.72,249Z"/><path class="cls-9" d="M52.25,172.07s.69-2.44.76-2.75.72-.95,1.53-1.61a6,6,0,0,1,2.37-1.14.94.94,0,0,1,.65.39,1.75,1.75,0,0,1,.33.83,1.07,1.07,0,0,1,.56.87.93.93,0,0,1,.42,1,.79.79,0,0,1,.38.77,7.59,7.59,0,0,0-.83.93,14.28,14.28,0,0,1-3.18,2.5S53.24,175.29,52.25,172.07Z"/><path class="cls-17" d="M55.25,170.14a5.41,5.41,0,0,1,.23,1.36c-.06.33,2.34.38,2.34.38S56.5,169.81,55.25,170.14Z"/><path class="cls-16" d="M28.14,176.27c1-1.58,2.27-2.28,6.39.56s3.15,2.3,4.14,3.2a45.69,45.69,0,0,0,5.3,3.16,38.64,38.64,0,0,0,3.74-4.29c1.36-2,4.21-7.38,4.21-7.38l4,3s-7.76,14.07-9.38,15.11-6.51-.7-9-1.77-5.23-2.46-6.4-2.74S25.6,180.37,28.14,176.27Z"/><rect class="cls-18" x="52.29" y="164.03" width="9.03" height="0.76" transform="translate(-115.97 184.57) rotate(-77.59)"/><path class="cls-19" d="M56.69,166.74s-2,1.72-1.78,2.08a.66.66,0,0,0,.55.34L55,170.25s.07.91,1,.57c0,0,0,.85.87.41,0,0,.24.57.69.44a8.83,8.83,0,0,0,1.7-1.29s.15-.37-.38-.77a.92.92,0,0,0-.42-1,1,1,0,0,0-.56-.87s0-1.15-1-1.22A1.63,1.63,0,0,0,56.69,166.74Z"/><path class="cls-9" d="M53,169.34a9,9,0,0,1,2.38-1.56c.24-.08.48-.11.63.08s.1.65-.46,1.21a6.53,6.53,0,0,0-1,1.54S53.82,171,53,169.34Z"/><path class="cls-20" d="M47.34,184.81a9.28,9.28,0,0,0-.14-5.21,6.84,6.84,0,0,1-.67,4C45.78,184.84,47.34,184.81,47.34,184.81Z"/><path class="cls-21" d="M62.06,185.27s2.17-16.11,6-23.14H62.45s-6.25,11-5.08,22.12Z"/><path class="cls-9" d="M63.39,173.21s.64-1.19.79-1.58.78.29.68.79S63.39,173.21,63.39,173.21Z"/><path class="cls-9" d="M68.33,175.9a2.64,2.64,0,0,1-.36.8s-.39.37-.65.65l-.19.22a5.41,5.41,0,0,1-1,1.25c-.56.44-2.69,1.83-2.69,1.83L61.92,179l-1.2-1.25s1-3.81,1.49-4.29a.86.86,0,0,1,.14-.13,7.26,7.26,0,0,1,1.17-.62c.09-.06,1-.59,1.36-.47a1.07,1.07,0,0,1,.72.75,2.61,2.61,0,0,1,1.1.9,1.6,1.6,0,0,1,.91,1.07S68.36,175.4,68.33,175.9Z"/><path class="cls-9" d="M78.2,217.51l-6.31,14.2-1.21,2.73c-.42.95-.77,1.74-1,2.28-1.67,3.77-5.79,12-5.79,12s-3.09.11-3.27-2.52c0,0,3-5.69,3-9.7s.54-15.8,4.36-18.35C72.6,215,75.63,214.43,78.2,217.51Z"/><path class="cls-9" d="M44.14,201.75a4.3,4.3,0,0,0,1.44,1c.65.18,11.65,1,16.73,2.69s11.84,2.75,13.09,4.18,3.35,9.33,3.29,10.82,4.47,26.68,5,28.64c.3,1-4.09.65-4.09.65s-6.24-14.88-7.57-17.63c-2.45-5.05-2.57-11.24-3.47-12.2s-10.88-3.1-16.62-3.1-18.59.47-20-.3-10-6.46-6.4-14.05S44.14,201.75,44.14,201.75Z"/><path class="cls-16" d="M68.91,207.31l-9,17.39s-2.74-6.5-7.53-7.61-23.87-.52-23.87-.52-8.77-11.09-1.26-16.9,16.26.92,16.26.92,1.81,2,2.69,2S54,202.54,68.91,207.31Z"/><path class="cls-9" d="M89.33,256.85s-2.77.69-3.83,0-4.68-6.8-5.87-7.16c0,0,1.16-2.36,4.09-.65C83.72,249,88.55,255.83,89.33,256.85Z"/><path class="cls-9" d="M66.49,256.72s-2.83-.39-3.56-1.43-1.8-8-2.77-8.83c0,0,2-1.75,4,.93C64.19,247.39,66.14,255.49,66.49,256.72Z"/><path class="cls-9" d="M37.57,146.74a7.41,7.41,0,0,1,7.79,6.79,18.36,18.36,0,0,1-.56,2.79c-.38,1.22.72,4.84.44,5a8,8,0,0,1-1.48.41s-1.27,3.95-2.66,3.92a11.53,11.53,0,0,1-9.12-6C29.51,154.71,28.74,147.17,37.57,146.74Z"/><path class="cls-9" d="M39.22,163.86s-.17.56-.36,1.38c-.1.42-.2.91-.3,1.43a9.67,9.67,0,0,0,0,4.25s-3.07,1.07-5.49-3.27c0,0,1-4.67-.32-7.51S39.22,163.86,39.22,163.86Z"/><path class="cls-16" d="M45.36,153.53s-3.36,3-6.91,2.77-5.94,4.26-5.94,4.26-5.36-6.73-1-12.17S46.12,146.77,45.36,153.53Z"/><path class="cls-9" d="M36.82,156.27a1.09,1.09,0,0,0-1.9-.77c-1.11.93.39,4.17,1.31,3.86S36.84,157,36.82,156.27Z"/><path class="cls-11" d="M38.86,165.24c-.1.42-.2.91-.3,1.43a15.15,15.15,0,0,1-4.28-4A17.16,17.16,0,0,0,38.86,165.24Z"/><path class="cls-16" d="M47.18,181.81c-.65,3-2.35,3.15-2.24,5.37s.76,2.4-.38,5.88c-.79,2.4-1.79,6.69.14,8.7,0,0-11.19,6.71-18.87,5.77,0,0,2-8.36,3.08-11.23s.77-16.14,0-19c-1.19-4.2,1.19-10.5,4.44-11.32l5,2.33s5.07,6.06,6.21,7S47.83,178.78,47.18,181.81Z"/><path class="cls-16" d="M30.54,169.55c1.42-1.18,3.47-3.21,6.48.8s5.18,6.59,5.83,7.76,6.29,9.31,6.29,9.31,3-2.78,4.71-4.08c1.93-1.48,7.2-7,7.2-7l3.48,3.86s-12.07,13.39-13.94,13.87-7.1-4.24-9.17-6.06-7.88-8.46-8.89-9.1S26.83,172.64,30.54,169.55Z"/><path class="cls-11" d="M71.89,231.71l-1.21,2.73c-1.36-4.36-1.25-11.64-1.25-11.64A42.1,42.1,0,0,0,71.89,231.71Z"/><rect class="cls-3" x="13.56" y="216.57" width="38.78" height="4.27"/><path class="cls-3" d="M33.73,203s-1,3.95,3.63,4.85,10.26,2,10.26,9.14h-16Z"/><polygon class="cls-9" points="57.4 159.92 58.06 158.7 58.15 160.08 57.4 159.92"/><path class="cls-3" d="M13.56,220.83,0,163.86S24.51,160,27.43,171,35.15,214.73,41,216.75,13.56,220.83,13.56,220.83Z"/><path class="cls-20" d="M45.08,191.16s-.25,1.05-.52,1.91l-6-7.73Z"/><path class="cls-16" d="M30.13,155.72s2.36,6.23,1.72,7.93a5.24,5.24,0,0,0,3-5.65C34.18,153.92,30.13,155.72,30.13,155.72Z"/><polygon class="cls-16" points="38.63 168.67 38.63 167.44 33.4 164.89 31.59 166.98 38.63 168.67"/><polygon class="cls-14" points="11.53 257.08 12.04 258.52 33.73 251.81 32.69 248.88 11.53 257.08"/><polygon class="cls-14" points="55.15 257.08 54.64 258.52 32.95 251.81 33.9 248.7 55.15 257.08"/><polygon class="cls-14" points="39.87 258.37 39.87 260.05 32.95 251.81 33.9 248.7 39.87 258.37"/><path class="cls-22" d="M40,259.09a2,2,0,1,1-2-2A2,2,0,0,1,40,259.09Z"/><path class="cls-22" d="M13.56,259.09a2,2,0,1,1-2-2A2,2,0,0,1,13.56,259.09Z"/><path class="cls-7" d="M296,55.45A21.95,21.95,0,1,1,274,33.51,21.94,21.94,0,0,1,296,55.45Z"/><path class="cls-23" d="M288.32,67.56l-1.62,5.81a21.72,21.72,0,0,1-10,3.86c-.65.08-1.3.14-2,.16H274c-.71,0-1.41,0-2.11-.1a21.83,21.83,0,0,1-11.25-4.44c-.31-1.92-.64-4-.94-6,1.62-.6,6.75-2.34,10-3.44l.13,0,.21-.07.55-.18.51-.17,1.3-.44h0l.07,0h0l4.36.33.73.05.23,0,.1,0c.26.07,1,.27,2,.58h0C282.56,64.25,286.74,65.75,288.32,67.56Z"/><path class="cls-24" d="M275.17,44.55s5.23.89,4.34,9.07-5.5,7.46-5.81,7.44-4.64.1-4.86-9.9C268.84,51.16,268.77,43.77,275.17,44.55Z"/><path class="cls-24" d="M277.46,58.69a18.73,18.73,0,0,0,.14,4.1c.32.73-4.2,3.05-7,.41a29.61,29.61,0,0,0,.39-5C270.81,56.92,277.46,58.69,277.46,58.69Z"/><path class="cls-24" d="M279.62,51.3s.57-.6.78,0-.93,3.38-.86,3.5-.1.24-.24.11A29.35,29.35,0,0,1,279.62,51.3Z"/><path class="cls-24" d="M268.9,51.08s-.56-.63-.79,0,.61,3.36.71,3.53c0,0,.18.29.32.16A28.68,28.68,0,0,0,268.9,51.08Z"/><path class="cls-25" d="M280,50.61c-.18,1.12-.35,2-.35,2l-.76,1a21.24,21.24,0,0,0-.07-2.54,4.51,4.51,0,0,1-.15-.61c-.09-.41-.18-.88-.24-1s-4.48-1.52-8.38.27c0,0,0,.34,0,.72s0,.93-.25,1c-.37.14-.22,2.57-.22,2.57l-.6-.7s-.18-1.27-.35-2.73h0c0-.35-.07-.7-.11-1-.09-1.47.06-4.14,2-5.71,1.29-.55,3.35-1,6.79,0a2.28,2.28,0,0,1,1,.27C280.4,46.38,280,50.61,280,50.61Z"/><path class="cls-26" d="M271.35,60a3.3,3.3,0,0,0,2.77,1.11,3.76,3.76,0,0,0,2.78-1,3,3,0,0,1-5.55-.06Z"/><path class="cls-24" d="M270.06,63.27a5.72,5.72,0,0,0,4.06,2.67c1.69.15,3.15-2,3.83-3A10.25,10.25,0,0,0,270.06,63.27Z"/><path class="cls-21" d="M277.47,62.13a14.54,14.54,0,0,1-3.35,2.9l1.42,2.18L278,62.9Z"/><path class="cls-21" d="M270.7,62.46A9.76,9.76,0,0,0,274.12,65l-1.55,2.24-2.72-3.93Z"/><path class="cls-27" d="M274.12,65l1.21,1.84a2.52,2.52,0,0,1-2.45,0Z"/><path class="cls-13" d="M289.72,67.22l0,.12c-.13.47-.65,2.3-1.31,4.72-.25.21-.51.43-.77.63s-.6.46-.91.68a21.72,21.72,0,0,1-10,3.86C277.05,69.64,278,62.9,278,62.9c.71.19,1.39.37,2,.56h0A47.17,47.17,0,0,1,289.34,67h0A4,4,0,0,1,289.72,67.22Z"/><path class="cls-13" d="M269.64,77a21.78,21.78,0,0,1-9-4.1,22.77,22.77,0,0,1-2.22-2l-.4-.41c-.38-1.63-.64-2.7-.65-2.76h0s2.71-1.78,12.32-4.35h0C269.72,63.61,269.72,69.77,269.64,77Z"/><path class="cls-27" d="M274.82,67.08c-.09,2-.1,5.88-.07,10.31H274c-.71,0-1.41,0-2.11-.1a68.92,68.92,0,0,1,1.46-10.23c.11-.44.17-.66.17-.66l1.29.21C274.83,66.76,274.82,66.91,274.82,67.08Z"/><path class="cls-13" d="M290.83,69.57a23,23,0,0,1-2.45,2.49c-.25.21-.51.43-.77.63,0,0,1.53-4.85,2.11-5.47C290.33,67.65,290.83,69.57,290.83,69.57Z"/><path class="cls-13" d="M258.45,70.91l-.4-.41c-.49-.52-.95-1.06-1.39-1.63a2.6,2.6,0,0,1,.74-1.14h0Z"/><rect class="cls-28" x="114.43" y="25.48" width="29.56" height="6.88" rx="2.47"/><path class="cls-29" d="M126.65,77.4a14.41,14.41,0,0,0,4.37.74,14.19,14.19,0,0,0,14.39-14c0-.32,0-.64,0-1a14.58,14.58,0,0,0-.83-4.08A14.2,14.2,0,1,0,126.65,77.4Zm-6.09-13.59a10.65,10.65,0,0,1,20.66-3.5h0a10.67,10.67,0,0,1,.62,3.06c0,.23,0,.47,0,.71a10.64,10.64,0,0,1-10.78,10.51,10.64,10.64,0,0,1-10.51-10.78Z"/><path class="cls-30" d="M139.63,70.46l2.81,2.18A14.18,14.18,0,0,1,131,78.14a14.41,14.41,0,0,1-4.37-.74L127.79,74a10.8,10.8,0,0,0,3.28.56A10.66,10.66,0,0,0,139.63,70.46Z"/><path class="cls-31" d="M141.84,63.37l3.55-.2c0,.32,0,.64,0,1a14.2,14.2,0,0,1-3,8.51l-2.81-2.18a10.56,10.56,0,0,0,2.22-6.38C141.86,63.84,141.85,63.6,141.84,63.37Z"/><path class="cls-31" d="M141.84,63.37a10.67,10.67,0,0,0-.62-3.06h0l3.34-1.22a14.58,14.58,0,0,1,.83,4.08Z"/><path class="cls-2" d="M122.67,52.6a14.2,14.2,0,0,1,21.89,6.49l-3.34,1.22h0a10.65,10.65,0,0,0-16.47-4.83Z"/><path class="cls-7" d="M289.74,144.85A16.87,16.87,0,1,1,272.88,128,16.87,16.87,0,0,1,289.74,144.85Z"/><path class="cls-32" d="M272.88,151.58a.85.85,0,0,1-.85-.85V139a.85.85,0,1,1,1.7,0v11.75A.85.85,0,0,1,272.88,151.58Z"/><path class="cls-32" d="M278.75,145.7H267a.85.85,0,1,1,0-1.7h11.75a.85.85,0,0,1,0,1.7Z"/><rect class="cls-29" x="224.34" y="89.87" width="15.82" height="15.82" rx="3.31"/><path class="cls-33" d="M231.75,101.26l-4-3.49a.79.79,0,0,1-.07-1.11.78.78,0,0,1,1.11-.07l2.83,2.46,4-4.5a.79.79,0,1,1,1.17,1.06Z"/><rect class="cls-29" x="224.34" y="110.14" width="15.82" height="15.82" rx="3.31"/><path class="cls-33" d="M231.75,121.53l-4-3.49a.79.79,0,0,1,1-1.18l2.83,2.46,4-4.49a.78.78,0,0,1,1.11-.07.79.79,0,0,1,.06,1.12Z"/><rect class="cls-29" x="224.34" y="130.41" width="15.82" height="15.82" rx="3.31"/><path class="cls-34" d="M174.23,239.9s.47,3.2.79,4.57,3.28,5.29,3.23,6-1.3,1.45-1.93.91-4.81-4.83-5.7-6.66-3.85-4.24-4.15-5.06,3.48-3.2,4.46-3.58S174.23,239.9,174.23,239.9Z"/><path class="cls-9" d="M166.82,182.85a11.6,11.6,0,0,0,.68,2.42,17.82,17.82,0,0,1,1.15,2.55c.07.27.55,2.19.63,2.43s-.46.62-.84.11a15.73,15.73,0,0,1-.8-2c-.17-.4-.68-1.67-.81-1.44a14.27,14.27,0,0,0-.13,2.37,14.54,14.54,0,0,0,.38,2.34c.14.56.88,2.89.58,3s-.55.09-.93-.54c0,0-.61.34-1-.43,0,0-.55.2-.89-.8a1.34,1.34,0,0,1-.53-.57,22.3,22.3,0,0,1-1-4.69c0-1.25.31-2.12.25-3a23.34,23.34,0,0,0-.5-2.77Z"/><polygon class="cls-35" points="172.06 235.53 170.93 236.04 174.23 239.9 175.32 238.69 172.06 235.53"/><path class="cls-34" d="M183.6,243.63a12,12,0,0,1-1.35,2.47c-.62.7-3,2-3,4,0,2.26,4,1.63,5.57,1.55s1.69-1.29,2.35-2.57,1.33-1.06,1.45-2.09a13.27,13.27,0,0,0-.51-3.35Z"/><path class="cls-35" d="M183.53,243l-.11,1.07a8.17,8.17,0,0,0,4.8.1l-.13-1.47Z"/><path class="cls-36" d="M197.22,215.73c0-2.79-2-27.11-1.94-28,.06-.61-.59-6.43-1.05-10.41v-.12c-.13-1.12-.24-2.08-.32-2.73,0-.3-.06-.53-.08-.68l0-.18s-13.13-2.59-19.93-.15c-.28.11-.56.22-.82.34,0,0,0,.11,0,.33-.07.5-.21,1.55-.4,3,0,.24-.07.49-.1.75a71,71,0,0,0,1.34,23.46c1.67,8,2.58,14,2.75,15.15.23,1.53.9,5.72,1.64,10.32-3.62,4.46-6.7,8.25-6.47,8.63.57.93,5.64,6.17,5.92,5.25,0,0,.92-1,2.35-2.69.46,2.81.77,4.73.77,4.73s5.55,1.33,7.6.12c0,0-.8-6.1-1.64-12.74C191.87,223.94,197.22,217.19,197.22,215.73Zm-12.32-2c-.07-3.74-1.73-24.71-1.56-24.71.82,0,5.44,20,5.61,22.78,0,.58-.69,1.87-1.85,3.56-.52.76-1.14,1.61-1.81,2.51h0C185.06,215.79,184.91,214.28,184.9,213.71Z"/><path class="cls-23" d="M199.41,138.78l-3.53,12.66c-.12.41-.26.92-.42,1.51v0a49.74,49.74,0,0,0-1.53,9.52c-.15,2.6.34,13.08.34,13.08a35.36,35.36,0,0,1-13.34,1.49s-8.6-.2-7.89-5.47c1.85-14,0-19.71-.21-21.11,0,0-1.16-6.77-2-12.45,2.42-.9,12.75-4.38,12.75-4.38l5.36.41S197.06,136.08,199.41,138.78Z"/><path class="cls-24" d="M186.26,115.77s5.22.89,4.34,9.06-5.5,7.46-5.81,7.45-4.64.1-4.87-9.9C179.92,122.38,179.86,115,186.26,115.77Z"/><path class="cls-24" d="M188.55,129.91a18.73,18.73,0,0,0,.14,4.1c.31.73-4.2,3.05-7,.41a29.61,29.61,0,0,0,.39-5C181.9,128.14,188.55,129.91,188.55,129.91Z"/><path class="cls-24" d="M190.7,122.52s.58-.6.79,0-.93,3.38-.86,3.5-.11.24-.24.11A29.4,29.4,0,0,1,190.7,122.52Z"/><path class="cls-24" d="M180,122.3s-.55-.63-.78,0,.61,3.36.71,3.53c0,0,.18.29.32.16A30.55,30.55,0,0,0,180,122.3Z"/><path class="cls-25" d="M191,121.83c-.18,1.12-.35,2-.35,2l-.76,1a21.24,21.24,0,0,0-.07-2.54,4.51,4.51,0,0,1-.15-.61c-.09-.42-.18-.88-.24-1s-4.48-1.53-8.38.27c0,0,0,.34,0,.71s-.05.93-.25,1c-.37.13-.22,2.57-.22,2.57l-.61-.7s-.17-1.28-.34-2.74h0c0-.34-.08-.69-.11-1-.09-1.47.06-4.14,2-5.71,1.29-.55,3.35-1,6.79,0a2.28,2.28,0,0,1,1,.27C191.49,117.6,191,121.83,191,121.83Z"/><path class="cls-26" d="M182.44,131.19a3.3,3.3,0,0,0,2.77,1.11,3.76,3.76,0,0,0,2.78-1.05,3,3,0,0,1-5.55-.06Z"/><path class="cls-24" d="M181.15,134.49a5.69,5.69,0,0,0,4.06,2.67c1.69.14,3.14-2,3.83-3A10.2,10.2,0,0,0,181.15,134.49Z"/><path class="cls-21" d="M188.55,133.35a14.32,14.32,0,0,1-3.34,2.9l1.42,2.18,2.41-4.31Z"/><path class="cls-21" d="M181.79,133.67a9.72,9.72,0,0,0,3.42,2.58l-1.55,2.24-2.72-3.93Z"/><path class="cls-27" d="M185.21,136.25l1.21,1.84a2.52,2.52,0,0,1-2.45,0Z"/><path class="cls-34" d="M172.73,178s6.56,2.41,21.39.14l-.2-2.69s-8.6,2.54-20.93.37Z"/><path class="cls-13" d="M189,134.12a163.7,163.7,0,0,0-1.32,21.33c.21,9.88,7.67,27.81,7.67,27.81s3.26-3.15,4.68-4.94c0,0-5.08-14.65-5-17.29s5.73-22.59,5.73-22.59S197.68,136.39,189,134.12Z"/><path class="cls-13" d="M180.81,134.6s0,11-.2,20.85-1.51,28.26-1.51,28.26-7.3-1.15-8.72-2.94c0,0,3-17.1,2.86-19.74S168.49,139,168.49,139,171.2,137.17,180.81,134.6Z"/><rect class="cls-37" x="181.67" y="176.31" width="4.03" height="3"/><path class="cls-27" d="M184.64,137.63s-1.8,6.13-1.95,18.33.22,15.69.22,15.69l1.4,2.78,1.87-2.9s-.6-28.06-.25-33.69Z"/><path class="cls-9" d="M195,183.37a2.59,2.59,0,0,0,.56-.5s.19-.4.34-.67A1.6,1.6,0,0,1,196,182a4,4,0,0,0,.72-1.11,23.27,23.27,0,0,0,.37-3.06l-1.55-.46-1.37-.6a30.17,30.17,0,0,0-3.26,2.79s0,.1-.07.14a5,5,0,0,0-.14,1c0,.09-.16,1,0,1.15a1.07,1.07,0,0,0,.88.31,2.4,2.4,0,0,0,1.13.54,1.57,1.57,0,0,0,1.22.37S194.56,183.53,195,183.37Z"/><path class="cls-13" d="M192.79,176.85A26.67,26.67,0,0,0,198,179.3s9.7-15.81,9.82-17-5.2-22.78-7.43-24.14l-3.65,12c.27-.08,4.6,9,4.62,10.15C201.41,162,192.79,176.85,192.79,176.85Z"/><path class="cls-13" d="M168,185a24.35,24.35,0,0,1-5.34.23s1.23-20.3,1.11-21.44,2.53-23.47,4.75-24.83l4,12c-.26-.08-2.66,12.22-2.67,13.39C169.75,165.85,168,185,168,185Z"/><polygon class="cls-36" points="190.16 178.56 196.71 181.96 194.25 186.5 188.95 180.82 190.16 178.56"/><path class="cls-34" d="M187.1,215.34l-.63,12.34-1.18-9.83h0C186,217,186.58,216.1,187.1,215.34Z"/><rect class="cls-29" x="155.72" y="65.37" width="3.64" height="11.93"/><rect class="cls-29" x="149.76" y="68.71" width="3.64" height="8.59"/><rect class="cls-29" x="161.69" y="59.84" width="3.64" height="17.46"/><rect class="cls-38" x="313.29" y="193.19" width="23.41" height="1.39" transform="translate(649.99 387.77) rotate(180)"/><rect class="cls-14" x="331.51" y="198.2" width="2.05" height="63.19"/><rect class="cls-39" x="300.69" y="192.8" width="16.27" height="1.98" transform="translate(617.64 387.58) rotate(180)"/><rect class="cls-40" x="305.74" y="175.87" width="6.16" height="18.71" transform="translate(617.64 370.45) rotate(180)"/><rect class="cls-15" x="254.95" y="194.6" width="90.14" height="3.59" transform="translate(600.05 392.8) rotate(180)"/><path class="cls-41" d="M362.4,172.86s1,13.83-1.72,15.48c-1.69,1-8.44,4.53-8.24,5.19s3.81,5.83,3.81,5.83,13-8.53,13.38-11.22-.64-20.25-2.42-21.06c-1.34-.61-2-.1-3.72,1.15C361.13,170,362.4,172.86,362.4,172.86Z"/><path class="cls-42" d="M338.77,176.81l-1.14-.43s1.43-3.34,2.05-3.26,1.61.33,1.61.33Z"/><path class="cls-43" d="M338.51,177.38c.15-.1,2.43-4.48,2.43-4.48l4.88.66-2.64,5.19Z"/><path class="cls-44" d="M346.45,252.76s.4,2.79.45,3.21,4.49-.24,4.49-.24l.35-3.33S347,252.36,346.45,252.76Z"/><path class="cls-36" d="M346.86,255.62a12.17,12.17,0,0,1-2.77,2.42c-1.36.73-3.49,1-4.29,1.79-.58.54-2.12,2.91,3.53,2.86s8.36.33,9-.57-.87-6.69-.87-6.69A12,12,0,0,1,346.86,255.62Z"/><path class="cls-44" d="M318.05,252.78s.4,2.8.45,3.22,4.48-.25,4.48-.25l.36-3.33S318.6,252.39,318.05,252.78Z"/><path class="cls-36" d="M318.45,255.64a12,12,0,0,1-2.76,2.43c-1.36.73-6.36,1.33-7.16,2.09-.58.55-1.54,2.76,6.39,2.56,5.64-.15,8.37.33,9-.58s-.87-6.69-.87-6.69S321.76,256,318.45,255.64Z"/><path class="cls-36" d="M360.75,204.43s-16.12,2.73-19.76,3.3-23.38,5.49-25.84,7c-2,1.19,1,29.8,1.73,40.72h7.77l.56-32.74c9.33.23,16-2.19,22.78-1.15s12.46,2.49,16.78-3.3C364.77,218.24,364.93,205.7,360.75,204.43Z"/><path class="cls-36" d="M344.86,255.45l7.58-.46.74-32.3a46.42,46.42,0,0,0,8.64-.55l6.12-14.22c-5.37,1.07-22.54,5.4-24.83,6.79C341.14,215.9,344.16,244.54,344.86,255.45Z"/><path class="cls-9" d="M353.33,144s-5.91-1.63-8.16,3-1.24,13.28,1.74,14.1,7.26-.13,8.5-3,2.22-6.91,1.92-9.54S354.9,144.65,353.33,144Z"/><path class="cls-9" d="M348.46,160.16s.06,3.49-.32,4.23,8.22.56,8.22.56a17.64,17.64,0,0,1-.59-7.76C356.54,153.66,348.46,160.16,348.46,160.16Z"/><path class="cls-45" d="M356.24,155.87s-.46.94-2.69.79-5.17-2.84-6.11-3.08-1-.78-1-.78l-.5.89-1,.14s.66-2.69-.77-3.64.64-8.59,7.91-6.75c0,0,5.55,1,5.62,4.11S357.32,154.23,356.24,155.87Z"/><path class="cls-38" d="M347.68,164.3s0-1.42.67-1.55,6.77-1,7.56-.67l.34,1.87S354.73,164.89,347.68,164.3Z"/><path class="cls-9" d="M345.91,152.16c.17-1.16,1.49-2.5,2.25-.69s-.51,4.46-1.36,4.32S345.69,153.74,345.91,152.16Z"/><path class="cls-13" d="M322,181.09h0C322,181.11,322,181.11,322,181.09Z"/><path class="cls-45" d="M355.05,144.85s7.2-.33,1.26,10.91Z"/><polygon class="cls-46" points="371.1 259.29 370.56 260.79 347.92 253.78 349.01 250.73 371.1 259.29"/><rect class="cls-46" x="347.15" y="228.09" width="2.57" height="24.62" transform="translate(696.87 480.79) rotate(180)"/><rect class="cls-47" x="340.84" y="226.78" width="15.18" height="1.45" transform="translate(696.87 455.01) rotate(180)"/><polygon class="cls-46" points="325.57 259.29 326.1 260.79 348.75 253.78 347.75 250.53 325.57 259.29"/><polygon class="cls-46" points="341.52 260.63 341.52 262.39 348.75 253.78 347.75 250.53 341.52 260.63"/><path class="cls-22" d="M323.45,261.38a2.12,2.12,0,1,0,2.12-2.11A2.12,2.12,0,0,0,323.45,261.38Z"/><path class="cls-22" d="M341.34,261.38a2.12,2.12,0,1,0,2.12-2.11A2.12,2.12,0,0,0,341.34,261.38Z"/><path class="cls-22" d="M369,261.38a2.12,2.12,0,1,0,2.11-2.11A2.11,2.11,0,0,0,369,261.38Z"/><rect class="cls-38" x="330.35" y="221.29" width="35.96" height="5.49" rx="2.71" transform="translate(696.67 448.07) rotate(180)"/><rect class="cls-14" x="266.49" y="198.2" width="2.05" height="63.19" transform="translate(535.02 459.58) rotate(180)"/><path class="cls-48" d="M284.93,147.36h47.79a2.7,2.7,0,0,1,2.7,2.7v32.12a2.71,2.71,0,0,1-2.71,2.71H284.93a2.71,2.71,0,0,1-2.71-2.71V150.06A2.71,2.71,0,0,1,284.93,147.36Z" transform="translate(617.64 332.24) rotate(180)"/><rect class="cls-28" x="284.31" y="149.38" width="49.03" height="29.62" transform="translate(617.64 328.39) rotate(180)"/><rect class="cls-49" x="284.31" y="149.38" width="49.03" height="2.36" transform="translate(617.64 301.12) rotate(180)"/><path class="cls-49" d="M287.79,153.51h2.56a1.68,1.68,0,0,1,1.68,1.68V175.5a1.67,1.67,0,0,1-1.67,1.67h-2.56a1.67,1.67,0,0,1-1.67-1.67V155.19A1.67,1.67,0,0,1,287.79,153.51Z" transform="translate(578.15 330.69) rotate(180)"/><path class="cls-49" d="M322.07,153.51h9a.9.9,0,0,1,.9.9v.38a.9.9,0,0,1-.9.9h-9a.91.91,0,0,1-.91-.91v-.38A.9.9,0,0,1,322.07,153.51Z" transform="translate(653.12 309.22) rotate(180)"/><rect class="cls-49" x="321.17" y="157.17" width="10.78" height="20.61" rx="1.87" transform="translate(653.12 334.96) rotate(180)"/><path class="cls-50" d="M307.11,181.77a1.72,1.72,0,1,0,1.71-1.72A1.7,1.7,0,0,0,307.11,181.77Z"/><path class="cls-51" d="M297.81,194.65V194s.94-4.16,7.58-4.16,6.51,4.82,6.51,4.82Z"/><path class="cls-9" d="M312,190.45a6.55,6.55,0,0,1-2-.43c-.52-.32-3.69-2.45-4.43-2.11s-5.68,1.86-5.51,2.58.63.65,1,.52a25.92,25.92,0,0,1,4.26-.75s-3.53,1.29-3.54,2.23.74,1.16,1.07,1.52.74,1.23,1.65,1.3,5.34-1.47,6.25-1.54a21.62,21.62,0,0,0,2.72-.1A26.39,26.39,0,0,0,312,190.45Z"/><path class="cls-41" d="M338.24,166.27c4.6-.81,9.44-2,9.44-2l8.57-.35s7.86,1.73,11,3.13c.29.13.29,7,1.1,8.82l-2.57,5.42s-1.48,10.73-1.79,15.5c-.14,2.19.4,21.17.4,21.17s-.77.38-6.62,1-20.45-.23-20.54-.92,2.83-25.72,3-27c.19-2-.58-11.18-.58-11.18-1.1,1.48-3.91,8.16-6.84,11.34-1.72,1.87-10.24,3-11.85,3.07-3.5.12-9.88.81-10.07.47s-.55-5.66-.15-5.79,12.2-.8,15.23-2.41c1.11-.59,4.43-7.83,4.43-7.83S335.7,167.41,338.24,166.27Z"/><rect class="cls-38" x="349.92" y="183.09" width="24.8" height="34.35" rx="5.21" transform="translate(724.63 400.53) rotate(180)"/><path class="cls-38" d="M354.31,225.41a11.31,11.31,0,0,0,8.81-3.65c5-5.47,4.07-15.09,4-15.5a1.38,1.38,0,0,0-2.75.27c0,.11.8,8.83-3.33,13.39a8.6,8.6,0,0,1-6.76,2.73,1.38,1.38,0,0,0,0,2.76Z"/><path class="cls-7" d="M309.53,161.49a6.93,6.93,0,0,1-1.62,4.46,8.11,8.11,0,0,1-.77.78,2.43,2.43,0,0,1-.25.2,2.92,2.92,0,0,1-.28.21,6.83,6.83,0,0,1-3.15,1.22c-.21,0-.41,0-.62,0h-.23c-.23,0-.45,0-.67,0s-.48-.06-.72-.1a7,7,0,0,1-2.83-1.3,8,8,0,0,1-.7-.61l-.12-.13c-.16-.17-.3-.34-.44-.52a6.92,6.92,0,1,1,12.4-4.23Z"/><path class="cls-23" d="M307.12,165.31l-.51,1.83a6.83,6.83,0,0,1-3.15,1.22c-.21,0-.41,0-.62,0h-.23c-.23,0-.45,0-.67,0s-.48-.06-.72-.1a7,7,0,0,1-2.83-1.3c-.1-.6-.2-1.27-.29-1.9.51-.19,2.13-.74,3.15-1.09h0l.07,0,.17-.06.16-.05.41-.14h0l1.38.1.23,0h.1l.64.19h0A6.82,6.82,0,0,1,307.12,165.31Z"/><path class="cls-24" d="M303,158.05s1.65.28,1.37,2.86-1.74,2.35-1.83,2.35-1.47,0-1.54-3.12C301,160.14,301,157.8,303,158.05Z"/><path class="cls-24" d="M303.69,162.51a6,6,0,0,0,0,1.3c.11.23-1.32,1-2.21.13a9.69,9.69,0,0,0,.13-1.58C301.59,162,303.69,162.51,303.69,162.51Z"/><path class="cls-24" d="M304.37,160.18s.18-.19.25,0a5.7,5.7,0,0,1-.27,1.1s0,.08-.08,0A10.05,10.05,0,0,1,304.37,160.18Z"/><path class="cls-24" d="M301,160.11s-.18-.2-.25,0a3.15,3.15,0,0,0,.23,1.11s0,.09.1.05A10.57,10.57,0,0,0,301,160.11Z"/><path class="cls-25" d="M304.48,160c-.06.35-.11.62-.11.62l-.24.31a5.9,5.9,0,0,0,0-.8s0-.12,0-.19a3.22,3.22,0,0,0-.08-.33,3.54,3.54,0,0,0-2.64.08s0,.11,0,.23,0,.29-.08.32-.07.81-.07.81l-.19-.23s-.06-.4-.11-.86h0c0-.11,0-.22,0-.33a2.17,2.17,0,0,1,.62-1.8,3,3,0,0,1,2.14,0,.86.86,0,0,1,.32.08A3.06,3.06,0,0,1,304.48,160Z"/><path class="cls-26" d="M301.76,162.91a1.05,1.05,0,0,0,.88.36,1.18,1.18,0,0,0,.87-.34.93.93,0,0,1-1.75,0Z"/><path class="cls-24" d="M301.36,164a1.78,1.78,0,0,0,1.28.84c.53,0,1-.63,1.21-1A3.22,3.22,0,0,0,301.36,164Z"/><path class="cls-21" d="M303.69,163.6a4.39,4.39,0,0,1-1.05.91l.44.69.77-1.36Z"/><path class="cls-21" d="M301.56,163.7a3,3,0,0,0,1.08.81l-.49.71-.86-1.24Z"/><path class="cls-27" d="M302.64,164.51l.38.58a.8.8,0,0,1-.78,0Z"/><path class="cls-13" d="M307.56,165.2a.1.1,0,0,1,0,0l-.41,1.49a2.43,2.43,0,0,1-.25.2,2.92,2.92,0,0,1-.28.21,6.83,6.83,0,0,1-3.15,1.22c.1-2.39.39-4.52.39-4.52l.63.18h0a14.72,14.72,0,0,1,2.95,1.11h0Z"/><path class="cls-13" d="M301.22,168.28a7,7,0,0,1-2.83-1.3,8,8,0,0,1-.7-.61l-.12-.13c-.12-.52-.2-.85-.21-.87h0a15.5,15.5,0,0,1,3.89-1.38h0C301.25,164.06,301.25,166,301.22,168.28Z"/><path class="cls-27" d="M302.86,165.16c0,.63,0,1.85,0,3.25h-.23c-.23,0-.45,0-.67,0a22.31,22.31,0,0,1,.46-3.22l.06-.21.4.06Z"/><path class="cls-13" d="M307.91,166a8.11,8.11,0,0,1-.77.78,2.43,2.43,0,0,1-.25.2l.55-1.8h0a.57.57,0,0,1,.11.11A3.25,3.25,0,0,1,307.91,166Z"/><path class="cls-13" d="M297.69,166.37l-.12-.13c-.16-.17-.3-.34-.44-.52a.74.74,0,0,1,.23-.35h0Z"/><path class="cls-22" d="M57.18,259.09a2,2,0,1,1-2-2A2,2,0,0,1,57.18,259.09Z"/></g></g></svg>